<svg width="24" height="24" viewBox="0 0 24 24"  xmlns="http://www.w3.org/2000/svg">
    <path fill-rule="evenodd" clip-rule="evenodd"
          d="M12 20.5C16.6944 20.5 20.5 16.6944 20.5 12C20.5 7.30558 16.6944 3.5 12 3.5C7.30558 3.5 3.5 7.30558 3.5 12C3.5 16.6944 7.30558 20.5 12 20.5ZM12 22C17.5228 22 22 17.5228 22 12C22 6.47715 17.5228 2 12 2C6.47715 2 2 6.47715 2 12C2 17.5228 6.47715 22 12 22Z"
          />
    <path d="M13 18C13 18.5523 12.5523 19 12 19C11.4477 19 11 18.5523 11 18C11 17.4477 11.4477 17 12 17C12.5523 17 13 17.4477 13 18Z"
          />
    <path fill-rule="evenodd" clip-rule="evenodd"
          d="M12 7.75C11.0215 7.75 10.1871 8.37503 9.87784 9.24993C9.7398 9.64047 9.31131 9.84517 8.92077 9.70713C8.53023 9.56909 8.32554 9.1406 8.46358 8.75007C8.97801 7.29459 10.3661 6.25 12 6.25C14.0711 6.25 15.75 7.92893 15.75 10C15.75 11.8142 14.4617 13.3275 12.75 13.675V15C12.75 15.4142 12.4142 15.75 12 15.75C11.5858 15.75 11.25 15.4142 11.25 15V13C11.25 12.5858 11.5858 12.25 12 12.25C13.2426 12.25 14.25 11.2426 14.25 10C14.25 8.75736 13.2426 7.75 12 7.75Z"
          />
</svg>
