<svg width="24" height="24" viewBox="0 0 24 24"  xmlns="http://www.w3.org/2000/svg">
    <path fill-rule="evenodd" clip-rule="evenodd"
          d="M20.7898 10.2057C22.235 8.24877 22.0714 5.47683 20.299 3.70446C18.5266 1.93208 15.7547 1.76847 13.7978 3.21364L13.5815 2.99735C13.2886 2.70446 12.8137 2.70446 12.5208 2.99735C12.2279 3.29024 12.2279 3.76512 12.5208 4.05801L12.7371 4.2743C12.1456 5.07532 11.8236 6.0129 11.7711 6.96259L2.67299 17.3557C2.06631 18.0491 2.1011 19.0941 2.75257 19.7455L4.25792 21.2509C4.90939 21.9024 5.95438 21.9371 6.64774 21.3305L17.0408 12.2323C17.9905 12.1799 18.9281 11.8579 19.7292 11.2663L19.9455 11.4826C20.2384 11.7755 20.7132 11.7755 21.0061 11.4826C21.299 11.1897 21.299 10.7149 21.0061 10.422L20.7898 10.2057ZM18.6511 10.1882C17.2963 11.0575 15.4734 10.8997 14.2886 9.71486C13.1038 8.53006 12.946 6.70717 13.8152 5.3524L18.6511 10.1882ZM19.7117 9.12758L14.8759 4.29174C16.2307 3.42253 18.0536 3.58032 19.2384 4.76512C20.4232 5.94992 20.5809 7.77282 19.7117 9.12758ZM15.0692 11.9454C14.3971 11.704 13.7664 11.314 13.2279 10.7755C12.6895 10.2371 12.2995 9.60633 12.058 8.93423L10.118 11.2012L12.8023 13.8854L15.0692 11.9454ZM3.80186 18.3435L9.13981 12.3442L11.6592 14.8636L5.65998 20.2016C5.56093 20.2883 5.41165 20.2833 5.31858 20.1902L3.81323 18.6849C3.72016 18.5918 3.71519 18.4425 3.80186 18.3435Z"
          />
</svg>
