<svg width="24" height="24" viewBox="0 0 24 24"  xmlns="http://www.w3.org/2000/svg">
    <path fill-rule="evenodd" clip-rule="evenodd"
          d="M8.5061 5.17803C6.12166 6.43572 4.5 8.93825 4.5 11.8166C4.5 15.9587 7.85786 19.3166 12 19.3166C14.8783 19.3166 17.3809 17.6949 18.6386 15.3105C13.1269 15.124 8.69254 10.6897 8.5061 5.17803ZM19 13.8166C19.866 13.8166 20.6118 14.5799 20.2691 15.3752C18.8898 18.5759 15.7066 20.8166 12 20.8166C7.02944 20.8166 3 16.7871 3 11.8166C3 8.11001 5.24067 4.92677 8.4414 3.5475C9.23674 3.20477 10 3.95055 10 4.8166C10 9.78716 14.0294 13.8166 19 13.8166Z"
          />
</svg>
