<svg width="24" height="24" viewBox="0 0 24 24"  xmlns="http://www.w3.org/2000/svg">
    <path fill-rule="evenodd" clip-rule="evenodd"
          d="M10.2163 2.53467C11.2441 1.65875 12.7559 1.65875 13.7837 2.53467L15.0552 3.6182C15.2554 3.78882 15.5043 3.89192 15.7665 3.91285L17.4317 4.04574C18.7779 4.15316 19.8468 5.22211 19.9543 6.56826L20.0871 8.2335C20.1081 8.49571 20.2112 8.74464 20.3818 8.94484L21.4653 10.2163C22.3412 11.2441 22.3412 12.7559 21.4653 13.7837L20.3818 15.0552C20.2112 15.2554 20.1081 15.5043 20.0871 15.7665L19.9543 17.4317C19.8468 18.7779 18.7779 19.8469 17.4317 19.9543L15.7665 20.0872C15.5043 20.1081 15.2554 20.2112 15.0552 20.3818L13.7837 21.4653C12.7559 22.3413 11.2441 22.3413 10.2163 21.4653L8.94483 20.3818C8.74462 20.2112 8.4957 20.1081 8.23349 20.0872L6.56825 19.9543C5.2221 19.8469 4.15314 18.7779 4.04572 17.4317L3.91283 15.7665C3.89191 15.5043 3.7888 15.2554 3.61819 15.0552L2.53465 13.7837C1.65874 12.7559 1.65874 11.2441 2.53465 10.2163L3.61819 8.94484C3.7888 8.74464 3.89191 8.49571 3.91283 8.2335L4.04572 6.56826C4.15314 5.22211 5.2221 4.15316 6.56825 4.04574L8.23349 3.91285C8.4957 3.89192 8.74462 3.78882 8.94483 3.6182L10.2163 2.53467ZM12.8108 3.67634C12.3436 3.2782 11.6564 3.2782 11.1892 3.67634L9.91775 4.75987C9.4773 5.13522 8.92967 5.36206 8.35281 5.40809L6.68757 5.54098C6.07568 5.58981 5.5898 6.0757 5.54097 6.68759L5.40808 8.35283C5.36205 8.92968 5.13521 9.47732 4.75986 9.91777L3.67632 11.1892C3.27818 11.6564 3.27818 12.3436 3.67632 12.8108L4.75986 14.0822C5.13521 14.5227 5.36205 15.0703 5.40808 15.6472L5.54097 17.3124C5.5898 17.9243 6.07568 18.4102 6.68757 18.459L8.35281 18.5919C8.92967 18.638 9.4773 18.8648 9.91775 19.2401L11.1892 20.3237C11.6564 20.7218 12.3436 20.7218 12.8108 20.3237L14.0822 19.2401C14.5227 18.8648 15.0703 18.638 15.6472 18.5919L17.3124 18.459C17.9243 18.4102 18.4102 17.9243 18.459 17.3124L18.5919 15.6472C18.6379 15.0703 18.8648 14.5227 19.2401 14.0822L20.3237 12.8108C20.7218 12.3436 20.7218 11.6564 20.3237 11.1892L19.2401 9.91777C18.8648 9.47732 18.6379 8.92968 18.5919 8.35283L18.459 6.68759C18.4102 6.0757 17.9243 5.58981 17.3124 5.54098L15.6472 5.40809C15.0703 5.36206 14.5227 5.13522 14.0822 4.75987L12.8108 3.67634Z"
          />
</svg>
