<svg width="24" height="24" viewBox="0 0 24 24"  xmlns="http://www.w3.org/2000/svg">
    <path fill-rule="evenodd" clip-rule="evenodd"
          d="M18.364 2.8076C17.1924 1.63603 15.2929 1.63603 14.1214 2.8076L2.80765 14.1213C1.63608 15.2929 1.63608 17.1924 2.80765 18.364L5.63608 21.1924C6.80765 22.364 8.70714 22.364 9.87872 21.1924L21.1924 9.87867C22.364 8.7071 22.364 6.8076 21.1924 5.63603L18.364 2.8076ZM20.1318 6.69669L17.3033 3.86826C16.7176 3.28248 15.7678 3.28248 15.182 3.86826L14.2981 4.75219L16.0658 6.51994C16.3587 6.81283 16.3587 7.28771 16.0658 7.5806C15.7729 7.87349 15.2981 7.87349 15.0052 7.5806L13.2374 5.81285L11.4697 7.58056L12.5304 8.6412C12.8233 8.9341 12.8233 9.40897 12.5304 9.70186C12.2375 9.99476 11.7626 9.99476 11.4697 9.70186L10.4091 8.64122L8.64123 10.4091L10.409 12.1768C10.7019 12.4697 10.7019 12.9446 10.409 13.2375C10.1161 13.5304 9.64121 13.5304 9.34832 13.2375L7.58057 11.4697L5.81286 13.2374L6.8735 14.2981C7.16639 14.591 7.16639 15.0658 6.8735 15.3587C6.58061 15.6516 6.10573 15.6516 5.81284 15.3587L4.7522 14.2981L3.86831 15.182C3.28252 15.7678 3.28252 16.7175 3.86831 17.3033L6.69674 20.1317C7.28252 20.7175 8.23227 20.7175 8.81806 20.1317L20.1318 8.81801C20.7176 8.23223 20.7176 7.28248 20.1318 6.69669Z"
          />
</svg>
