<svg width="24" height="24" viewBox="0 0 24 24"  xmlns="http://www.w3.org/2000/svg">
    <path d="M5.75 3C4.24011 3 3 4.24011 3 5.75V18.25C3 19.7599 4.24011 21 5.75 21H18.25C19.7599 21 21 19.7599 21 18.25V5.75C21 4.24011 19.7599 3 18.25 3H5.75ZM5.75 4.5H18.25C18.9491 4.5 19.5 5.05089 19.5 5.75V18.25C19.5 18.9491 18.9491 19.5 18.25 19.5H5.75C5.05089 19.5 4.5 18.9491 4.5 18.25V5.75C4.5 5.05089 5.05089 4.5 5.75 4.5ZM7.25 7.75C6.98478 7.75 6.73043 7.85536 6.54289 8.04289C6.35536 8.23043 6.25 8.48478 6.25 8.75C6.25 9.01522 6.35536 9.26957 6.54289 9.45711C6.73043 9.64464 6.98478 9.75 7.25 9.75C7.51522 9.75 7.76957 9.64464 7.95711 9.45711C8.14464 9.26957 8.25 9.01522 8.25 8.75C8.25 8.48478 8.14464 8.23043 7.95711 8.04289C7.76957 7.85536 7.51522 7.75 7.25 7.75ZM10.25 8C10.1506 7.99859 10.0519 8.01696 9.95972 8.05402C9.86749 8.09108 9.78355 8.1461 9.71277 8.21588C9.642 8.28566 9.58579 8.36882 9.54743 8.46051C9.50907 8.5522 9.48932 8.65061 9.48932 8.75C9.48932 8.84939 9.50907 8.9478 9.54743 9.03949C9.58579 9.13118 9.642 9.21434 9.71277 9.28412C9.78355 9.3539 9.86749 9.40892 9.95972 9.44598C10.0519 9.48304 10.1506 9.50141 10.25 9.5H17.25C17.3494 9.50141 17.4481 9.48304 17.5403 9.44598C17.6325 9.40892 17.7164 9.3539 17.7872 9.28412C17.858 9.21434 17.9142 9.13118 17.9526 9.03949C17.9909 8.9478 18.0107 8.84939 18.0107 8.75C18.0107 8.65061 17.9909 8.5522 17.9526 8.46051C17.9142 8.36882 17.858 8.28566 17.7872 8.21588C17.7164 8.1461 17.6325 8.09108 17.5403 8.05402C17.4481 8.01696 17.3494 7.99859 17.25 8H10.25ZM7.25 11.25C6.98478 11.25 6.73043 11.3554 6.54289 11.5429C6.35536 11.7304 6.25 11.9848 6.25 12.25C6.25 12.5152 6.35536 12.7696 6.54289 12.9571C6.73043 13.1446 6.98478 13.25 7.25 13.25C7.51522 13.25 7.76957 13.1446 7.95711 12.9571C8.14464 12.7696 8.25 12.5152 8.25 12.25C8.25 11.9848 8.14464 11.7304 7.95711 11.5429C7.76957 11.3554 7.51522 11.25 7.25 11.25ZM10.25 11.5C10.1506 11.4986 10.0519 11.517 9.95972 11.554C9.86749 11.5911 9.78355 11.6461 9.71277 11.7159C9.642 11.7857 9.58579 11.8688 9.54743 11.9605C9.50907 12.0522 9.48932 12.1506 9.48932 12.25C9.48932 12.3494 9.50907 12.4478 9.54743 12.5395C9.58579 12.6312 9.642 12.7143 9.71277 12.7841C9.78355 12.8539 9.86749 12.9089 9.95972 12.946C10.0519 12.983 10.1506 13.0014 10.25 13H17.25C17.3494 13.0014 17.4481 12.983 17.5403 12.946C17.6325 12.9089 17.7164 12.8539 17.7872 12.7841C17.858 12.7143 17.9142 12.6312 17.9526 12.5395C17.9909 12.4478 18.0107 12.3494 18.0107 12.25C18.0107 12.1506 17.9909 12.0522 17.9526 11.9605C17.9142 11.8688 17.858 11.7857 17.7872 11.7159C17.7164 11.6461 17.6325 11.5911 17.5403 11.554C17.4481 11.517 17.3494 11.4986 17.25 11.5H10.25ZM7.25 14.75C6.98478 14.75 6.73043 14.8554 6.54289 15.0429C6.35536 15.2304 6.25 15.4848 6.25 15.75C6.25 16.0152 6.35536 16.2696 6.54289 16.4571C6.73043 16.6446 6.98478 16.75 7.25 16.75C7.51522 16.75 7.76957 16.6446 7.95711 16.4571C8.14464 16.2696 8.25 16.0152 8.25 15.75C8.25 15.4848 8.14464 15.2304 7.95711 15.0429C7.76957 14.8554 7.51522 14.75 7.25 14.75ZM10.25 15C10.1506 14.9986 10.0519 15.017 9.95972 15.054C9.86749 15.0911 9.78355 15.1461 9.71277 15.2159C9.642 15.2857 9.58579 15.3688 9.54743 15.4605C9.50907 15.5522 9.48932 15.6506 9.48932 15.75C9.48932 15.8494 9.50907 15.9478 9.54743 16.0395C9.58579 16.1312 9.642 16.2143 9.71277 16.2841C9.78355 16.3539 9.86749 16.4089 9.95972 16.446C10.0519 16.483 10.1506 16.5014 10.25 16.5H17.25C17.3494 16.5014 17.4481 16.483 17.5403 16.446C17.6325 16.4089 17.7164 16.3539 17.7872 16.2841C17.858 16.2143 17.9142 16.1312 17.9526 16.0395C17.9909 15.9478 18.0107 15.8494 18.0107 15.75C18.0107 15.6506 17.9909 15.5522 17.9526 15.4605C17.9142 15.3688 17.858 15.2857 17.7872 15.2159C17.7164 15.1461 17.6325 15.0911 17.5403 15.054C17.4481 15.017 17.3494 14.9986 17.25 15H10.25Z"
          />
</svg>
