<svg width="24" height="24" viewBox="0 0 24 24"  xmlns="http://www.w3.org/2000/svg">
    <path fill-rule="evenodd" clip-rule="evenodd"
          d="M12 17.5C16.3878 17.5 18.9924 14.2284 20.1118 12.3619C20.2493 12.1327 20.2493 11.8673 20.1118 11.6381C18.9924 9.77155 16.3878 6.5 12 6.5C7.61221 6.5 5.00759 9.77155 3.8882 11.6381C3.75073 11.8673 3.75073 12.1327 3.8882 12.3619C5.00759 14.2284 7.61221 17.5 12 17.5ZM21.3982 13.1334C20.2099 15.1148 17.215 19 12 19C6.78498 19 3.79008 15.1148 2.60179 13.1334C2.17953 12.4292 2.17953 11.5708 2.6018 10.8666C3.79008 8.88521 6.78498 5 12 5C17.215 5 20.2099 8.88521 21.3982 10.8666C21.8205 11.5708 21.8205 12.4292 21.3982 13.1334Z"
          />
    <path fill-rule="evenodd" clip-rule="evenodd"
          d="M12 13.5C12.8284 13.5 13.5 12.8284 13.5 12C13.5 11.1716 12.8284 10.5 12 10.5C11.1716 10.5 10.5 11.1716 10.5 12C10.5 12.8284 11.1716 13.5 12 13.5ZM12 15C13.6569 15 15 13.6569 15 12C15 10.3431 13.6569 9 12 9C10.3431 9 9 10.3431 9 12C9 13.6569 10.3431 15 12 15Z"
          />
</svg>
