<svg width="24" height="24" viewBox="0 0 24 24"  xmlns="http://www.w3.org/2000/svg">
    <path fill-rule="evenodd" clip-rule="evenodd"
          d="M12.9505 13.2123C13.3291 12.8337 13.8808 12.6856 14.3981 12.8238C15.9038 13.2259 17.5704 12.8351 18.7468 11.6586C19.849 10.5565 20.2613 9.02295 19.9791 7.59794L18.7469 8.83017C17.7705 9.80648 16.1876 9.80648 15.2113 8.83017C14.235 7.85386 14.235 6.27094 15.2113 5.29463L16.4435 4.06241C15.0185 3.78022 13.485 4.19253 12.3829 5.29465C11.2064 6.47109 10.8156 8.1377 11.2177 9.64334C11.3559 10.1607 11.2078 10.7124 10.8292 11.091L5.31181 16.6084C4.72603 17.1941 4.72603 18.1439 5.31181 18.7297C5.8976 19.3155 6.84735 19.3155 7.43314 18.7297L12.9505 13.2123ZM14.0111 14.273C16.0128 14.8076 18.2371 14.2896 19.8075 12.7193C21.6179 10.9089 22.0295 8.22937 21.0424 6.02377C20.7897 5.45935 20.0576 5.39812 19.6203 5.83537L17.6862 7.76951C17.2957 8.16003 16.6625 8.16003 16.272 7.76951C15.8815 7.37898 15.8815 6.74582 16.272 6.35529L18.2061 4.42116C18.6434 3.9839 18.5821 3.25175 18.0177 2.99913C15.8121 2.01197 13.1326 2.42359 11.3222 4.23399C9.75185 5.80436 9.23394 8.02866 9.76849 10.0304L4.25115 15.5477C3.07958 16.7193 3.07958 18.6188 4.25115 19.7903C5.42273 20.9619 7.32222 20.9619 8.49379 19.7903L14.0111 14.273Z"
          />
</svg>
