<svg width="24" height="24" viewBox="0 0 24 24"  xmlns="http://www.w3.org/2000/svg">
    <path fill-rule="evenodd" clip-rule="evenodd"
          d="M12 2.25C12.4142 2.25 12.75 2.58579 12.75 3V5C12.75 5.41421 12.4142 5.75 12 5.75C11.5858 5.75 11.25 5.41421 11.25 5V3C11.25 2.58579 11.5858 2.25 12 2.25Z"
          />
    <path fill-rule="evenodd" clip-rule="evenodd"
          d="M12 18.25C12.4142 18.25 12.75 18.5858 12.75 19V21C12.75 21.4142 12.4142 21.75 12 21.75C11.5858 21.75 11.25 21.4142 11.25 21V19C11.25 18.5858 11.5858 18.25 12 18.25Z"
          />
    <path fill-rule="evenodd" clip-rule="evenodd"
          d="M5.10571 5.1057C5.3986 4.81281 5.87348 4.81281 6.16637 5.1057L7.58058 6.51992C7.87348 6.81281 7.87348 7.28768 7.58058 7.58058C7.28769 7.87347 6.81282 7.87347 6.51992 7.58058L5.10571 6.16636C4.81282 5.87347 4.81282 5.3986 5.10571 5.1057Z"
          />
    <path fill-rule="evenodd" clip-rule="evenodd"
          d="M16.4194 16.4194C16.7123 16.1265 17.1872 16.1265 17.4801 16.4194L18.8943 17.8336C19.1872 18.1265 19.1872 18.6014 18.8943 18.8943C18.6014 19.1872 18.1265 19.1872 17.8336 18.8943L16.4194 17.4801C16.1265 17.1872 16.1265 16.7123 16.4194 16.4194Z"
          />
    <path fill-rule="evenodd" clip-rule="evenodd"
          d="M2.25 12C2.25 11.5858 2.58579 11.25 3 11.25L5 11.25C5.41421 11.25 5.75 11.5858 5.75 12C5.75 12.4142 5.41421 12.75 5 12.75L3 12.75C2.58579 12.75 2.25 12.4142 2.25 12Z"
          />
    <path fill-rule="evenodd" clip-rule="evenodd"
          d="M18.25 12C18.25 11.5858 18.5858 11.25 19 11.25L21 11.25C21.4142 11.25 21.75 11.5858 21.75 12C21.75 12.4142 21.4142 12.75 21 12.75L19 12.75C18.5858 12.75 18.25 12.4142 18.25 12Z"
          />
    <path fill-rule="evenodd" clip-rule="evenodd"
          d="M5.1057 18.8943C4.81281 18.6014 4.81281 18.1265 5.1057 17.8336L6.51992 16.4194C6.81281 16.1265 7.28768 16.1265 7.58058 16.4194C7.87347 16.7123 7.87347 17.1872 7.58058 17.4801L6.16636 18.8943C5.87347 19.1872 5.3986 19.1872 5.1057 18.8943Z"
          />
    <path fill-rule="evenodd" clip-rule="evenodd"
          d="M16.4194 7.58059C16.1265 7.28769 16.1265 6.81282 16.4194 6.51993L17.8336 5.10571C18.1265 4.81282 18.6014 4.81282 18.8943 5.10571C19.1872 5.39861 19.1872 5.87348 18.8943 6.16637L17.4801 7.58059C17.1872 7.87348 16.7123 7.87348 16.4194 7.58059Z"
          />
</svg>
