<svg width="24" height="24" viewBox="0 0 24 24"  xmlns="http://www.w3.org/2000/svg">
    <path d="M6.5 3C3.74759 3 1.5 5.24759 1.5 8C1.5 9.62041 2.30041 11.0373 3.5 11.9502V19.25C3.50004 19.4489 3.57907 19.6396 3.71973 19.7803L5.71973 21.7803C5.86038 21.9209 6.05112 21.9999 6.25 21.9999C6.44888 21.9999 6.63962 21.9209 6.78027 21.7803L9.28027 19.2803C9.42087 19.1396 9.49986 18.9489 9.49986 18.75C9.49986 18.5511 9.42087 18.3604 9.28027 18.2197L8.31055 17.25L9.28027 16.2803C9.42087 16.1396 9.49986 15.9489 9.49986 15.75C9.49986 15.5511 9.42087 15.3604 9.28027 15.2197L8.31055 14.25L9.28027 13.2803C9.42093 13.1396 9.49996 12.9489 9.5 12.75V11.9346C10.6963 11.0263 11.5 9.61814 11.5 8C11.5 5.24759 9.25241 3 6.5 3ZM6.5 4.5C8.44159 4.5 10 6.05841 10 8C10 9.2525 9.34226 10.3292 8.35254 10.9482C8.24456 11.0157 8.15555 11.1096 8.09387 11.221C8.03219 11.3324 7.99989 11.4576 8 11.585V12.4395L6.71973 13.7197C6.57913 13.8604 6.50014 14.0511 6.50014 14.25C6.50014 14.4489 6.57913 14.6396 6.71973 14.7803L7.68945 15.75L6.71973 16.7197C6.57913 16.8604 6.50014 17.0511 6.50014 17.25C6.50014 17.4489 6.57913 17.6396 6.71973 17.7803L7.68945 18.75L6.25 20.1895L5 18.9395V11.6006C4.99988 11.4737 4.96757 11.3489 4.90608 11.2379C4.8446 11.1268 4.75595 11.0332 4.64844 10.9658C3.65897 10.3459 3 9.25668 3 8C3 6.05841 4.55841 4.5 6.5 4.5ZM6.5 6C6.23478 6 5.98043 6.10536 5.79289 6.29289C5.60536 6.48043 5.5 6.73478 5.5 7C5.5 7.26522 5.60536 7.51957 5.79289 7.70711C5.98043 7.89464 6.23478 8 6.5 8C6.76522 8 7.01957 7.89464 7.20711 7.70711C7.39464 7.51957 7.5 7.26522 7.5 7C7.5 6.73478 7.39464 6.48043 7.20711 6.29289C7.01957 6.10536 6.76522 6 6.5 6ZM12.6797 6C12.8397 6.48 12.9405 6.98 12.9805 7.5H20.75C20.89 7.5 21 7.61 21 7.75V10.75C21 10.89 20.89 11 20.75 11H12.2646C11.9796 11.545 11.6147 12.0501 11.1797 12.4951C11.2047 12.5001 11.225 12.5 11.25 12.5H20.75C21.715 12.5 22.5 11.715 22.5 10.75V7.75C22.5 6.785 21.715 6 20.75 6H12.6797ZM10.6152 14C10.5602 14.09 10.4948 14.17 10.4248 14.25C10.7498 14.61 10.9354 15.045 10.9854 15.5H20.75C20.89 15.5 21 15.61 21 15.75V18.75C21 18.89 20.89 19 20.75 19H10.9854C10.9304 19.495 10.7148 19.9698 10.3398 20.3398L10.1797 20.5H20.75C21.715 20.5 22.5 19.715 22.5 18.75V15.75C22.5 14.785 21.715 14 20.75 14H10.6152Z"
          />
</svg>
