<svg width="24" height="24" viewBox="0 0 24 24"  xmlns="http://www.w3.org/2000/svg">
<path id="Polygon 1 (Stroke)" fill-rule="evenodd" clip-rule="evenodd" d="M20.1083 17.2573L13.3033 5.31639C12.7278 4.30664 11.2723 4.30665 10.6968 5.31639L3.89186 17.2574C3.32199 18.2573 4.04414 19.5 5.1951 19.5H18.8051C19.956 19.5 20.6782 18.2573 20.1083 17.2573ZM14.6065 4.5737C13.4556 2.55421 10.5445 2.55421 9.3936 4.5737L2.58863 16.5147C1.44889 18.5146 2.89318 21 5.1951 21H18.8051C21.107 21 22.5513 18.5146 21.4115 16.5147L14.6065 4.5737Z" />
<path id="Union" fill-rule="evenodd" clip-rule="evenodd" d="M11.5 16.25C11.5 16.6642 11.8358 17 12.25 17C12.6642 17 13 16.6642 13 16.25V14H15.25C15.6642 14 16 13.6642 16 13.25C16 12.8358 15.6642 12.5 15.25 12.5H13V10.25C13 9.83579 12.6642 9.5 12.25 9.5C11.8358 9.5 11.5 9.83579 11.5 10.25V12.5H9.25C8.83579 12.5 8.5 12.8358 8.5 13.25C8.5 13.6642 8.83579 14 9.25 14H11.5V16.25Z" />
</svg>
