<svg width="24" height="24" viewBox="0 0 24 24"  xmlns="http://www.w3.org/2000/svg">
    <path fill-rule="evenodd" clip-rule="evenodd"
          d="M11.75 4.37375V11.008L16.3577 7.74418C16.5023 7.64178 16.4974 7.42567 16.3484 7.32988L11.75 4.37375ZM10.25 10.0913V3.91583C10.25 2.92687 11.3441 2.32957 12.1759 2.86436L17.1596 6.06811C18.2027 6.73868 18.2367 8.25145 17.2248 8.96821L12.9446 12L17.2248 15.0318C18.2367 15.7486 18.2027 17.2613 17.1596 17.9319L12.1759 21.1356C11.3441 21.6704 10.25 21.0731 10.25 20.0842V13.9087L6.43351 16.612C6.0955 16.8514 5.6274 16.7715 5.38798 16.4335C5.14856 16.0955 5.22848 15.6274 5.56649 15.388L10.25 12.0705V11.9295L5.56649 8.61202C5.22848 8.3726 5.14856 7.90449 5.38798 7.56649C5.6274 7.22848 6.0955 7.14856 6.43351 7.38798L10.25 10.0913ZM11.75 12.992V19.6263L16.3484 16.6701C16.4974 16.5743 16.5023 16.3582 16.3577 16.2558L11.75 12.992Z"
          />
</svg>
