<svg width="24" height="24" viewBox="0 0 24 24"  xmlns="http://www.w3.org/2000/svg">
    <path fill-rule="evenodd" clip-rule="evenodd"
          d="M16.875 20.4437C12.2117 23.1361 6.24866 21.5383 3.55627 16.8749C0.863886 12.2116 2.46167 6.24856 7.12502 3.55617C11.7884 0.863783 17.7514 2.46157 20.4438 7.12492C23.1362 11.7883 21.5384 17.7513 16.875 20.4437ZM12.1444 20.2502C13.4995 20.2277 14.8681 19.8703 16.125 19.1446C19.6248 17.124 21.084 12.9265 19.7798 9.25L15.2415 9.25001C15.4035 9.44146 15.5508 9.64999 15.6807 9.87488C16.4804 11.26 16.4118 12.9083 15.6437 14.1892L12.1444 20.2502ZM12.0806 7.75001L19.0712 7.75C16.7594 3.90068 11.779 2.60124 7.87502 4.85521C7.03998 5.33732 6.3211 5.94337 5.72821 6.63671L7.99825 10.5685C8.32534 9.65264 8.96682 8.84365 9.87507 8.31927C10.5705 7.91775 11.3323 7.73512 12.0806 7.75001ZM9.6185 13.3749C8.8591 12.0596 9.30976 10.3777 10.6251 9.61831C11.0588 9.36787 11.5325 9.24903 11.9998 9.24942L12.0545 9.25001C12.9847 9.26929 13.8825 9.76028 14.3816 10.6249C14.8905 11.5063 14.856 12.5524 14.382 13.3751L14.3592 13.4141C14.1267 13.8026 13.795 14.139 13.3751 14.3814C12.0598 15.1408 10.3779 14.6902 9.6185 13.3749ZM8.31946 14.1249L4.78319 7.99989C3.42914 10.4483 3.35441 13.5253 4.85531 16.1249C6.11018 18.2984 8.20469 19.6849 10.4926 20.1112L12.7609 16.1824C11.0445 16.4945 9.24175 15.7223 8.31946 14.1249Z"
          />
</svg>
