<svg width="24" height="24" viewBox="0 0 24 24" xmlns="http://www.w3.org/2000/svg">
<path id="Vector" d="M5.25 3C4.00781 3 3 4.00781 3 5.25V15.75C3 16.9922 4.00781 18 5.25 18H6V18.75C6 19.9922 7.00781 21 8.25 21H15.4746L13.998 19.5H8.25C7.83398 19.5 7.5 19.1602 7.5 18.75V8.25C7.5 7.83984 7.83398 7.5 8.25 7.5H18.75C19.166 7.5 19.5 7.83984 19.5 8.25V13.998L21 15.4746V8.25C21 7.00781 19.9922 6 18.75 6H18V5.25C18 4.00781 16.9922 3 15.75 3H5.25ZM5.25 4.5H15.75C16.166 4.5 16.5 4.83984 16.5 5.25V6H8.25C7.00781 6 6 7.00781 6 8.25V16.5H5.25C4.83398 16.5 4.5 16.1602 4.5 15.75V5.25C4.5 4.83984 4.83398 4.5 5.25 4.5ZM11.9297 11.9297L12.9727 16.3125L13.1133 16.459L19.9688 23.4316C20.6953 24.1758 21.9199 24.1875 22.6582 23.4434L23.4434 22.6582C24.1875 21.9199 24.1758 20.6953 23.4316 19.9688L16.3125 12.9727L11.9297 11.9297ZM13.9453 13.9453L15.5625 14.332L22.3828 21.041C22.5469 21.1992 22.5469 21.4395 22.3828 21.5977L21.5977 22.3828C21.4395 22.5469 21.1992 22.5469 21.041 22.3828L14.332 15.5625L13.9453 13.9453Z"/>
</svg>
