<svg width="24" height="24" viewBox="0 0 24 24" fill="none" xmlns="http://www.w3.org/2000/svg">
<path d="M20 11V10.4V4.2C20 3 19 2 17.7 2H12.7H11.2H10.7H6.2C5 2 4 3 4 4.2V5V5.3V9.5V9.7V11C3.4 11.1 3 11.6 3 12.2V17.7C3 18.3 3.4 18.8 4 18.9V19.7C4 21 5 22 6.2 22H17.7C18.9 22 19.9 21 19.9 19.8V19C20.5 18.9 20.9 18.4 20.9 17.8V12.3C21 11.7 20.6 11.1 20 11ZM18.5 11H10.9V8H18.5V11ZM17.7 3.5C18.1 3.5 18.4 3.8 18.4 4.2V6.5H10.8V3.5H17.7ZM5.5 9.7V9.5V5.3V5V4.2C5.5 3.8 5.8 3.4 6.3 3.4H9.4V11H5.5V9.7ZM18.5 19.8C18.5 20.2 18.2 20.6 17.7 20.6H6.2C5.8 20.6 5.4 20.3 5.4 19.8V19H18.4V19.8H18.5ZM19.5 17.5H4.5V12.5H19.5V17.5Z" fill="#212C3A"/>
<path d="M6.14355 14.864C6.14355 13.761 6.88254 12.864 7.79004 12.864C8.51354 12.864 8.94639 13.3543 9.08789 13.6443C9.20939 13.8923 9.1064 14.1922 8.8584 14.3132C8.6129 14.4332 8.31686 14.3336 8.19336 14.0916C8.16986 14.0511 8.05204 13.864 7.79004 13.864C7.44604 13.864 7.14355 14.3315 7.14355 14.864C7.14355 15.3965 7.44604 15.864 7.79004 15.864C8.06954 15.864 8.18845 15.6463 8.18945 15.6443C8.31045 15.3963 8.60942 15.2938 8.85742 15.4148C9.10592 15.5363 9.20841 15.8357 9.08691 16.0837C8.94541 16.3737 8.51304 16.864 7.79004 16.864C6.88254 16.864 6.14355 15.967 6.14355 14.864Z" fill="#212C3A"/>
<path d="M11.8047 15.3222C11.9407 15.3619 12.0625 15.4157 12.1702 15.4837C12.2495 15.5404 12.2863 15.6225 12.2807 15.7302C12.275 15.8322 12.2098 15.9229 12.0852 16.0022C12.0002 16.0532 11.8982 16.0787 11.7792 16.0787C11.6658 16.0787 11.5468 16.0617 11.4222 16.0277C11.2975 15.9937 11.1728 15.9484 11.0482 15.8917C10.9235 15.8294 10.8158 15.767 10.7252 15.7047C10.6118 15.631 10.5098 15.6112 10.4192 15.6452C10.3285 15.6792 10.2577 15.7415 10.2067 15.8322C10.1613 15.9172 10.1387 16.0192 10.1387 16.1382C10.1443 16.2515 10.1868 16.3535 10.2662 16.4442C10.3795 16.5745 10.5183 16.6822 10.6827 16.7672C10.8527 16.8522 11.0283 16.9145 11.2097 16.9542C11.3967 16.9939 11.5837 17.0137 11.7707 17.0137C11.9633 17.0137 12.1418 16.9967 12.3062 16.9627C12.5328 16.9117 12.7283 16.8097 12.8927 16.6567C13.0627 16.5037 13.1817 16.328 13.2497 16.1297C13.3177 15.9314 13.329 15.7302 13.2837 15.5262C13.244 15.3222 13.1307 15.1437 12.9437 14.9907C12.8473 14.9114 12.7368 14.849 12.6122 14.8037C12.4932 14.7584 12.3685 14.7187 12.2382 14.6847C12.1135 14.6507 11.986 14.6167 11.8557 14.5827C11.7253 14.5487 11.6063 14.5034 11.4987 14.4467C11.3797 14.3844 11.3003 14.3107 11.2607 14.2257C11.2267 14.1407 11.2238 14.0614 11.2522 13.9877C11.2862 13.914 11.3457 13.8517 11.4307 13.8007C11.5157 13.7497 11.6233 13.727 11.7537 13.7327C11.8387 13.7327 11.918 13.7469 11.9917 13.7752C12.071 13.8035 12.1475 13.8375 12.2212 13.8772C12.2948 13.9169 12.3685 13.9537 12.4422 13.9877C12.5158 14.0217 12.5952 14.0472 12.6802 14.0642C12.7538 14.0755 12.8218 14.0699 12.8842 14.0472C12.9522 14.0245 13.006 13.9905 13.0457 13.9452C13.091 13.8999 13.1193 13.8432 13.1307 13.7752C13.1477 13.7072 13.1448 13.6364 13.1222 13.5627C13.0882 13.4494 13.0315 13.3559 12.9522 13.2822C12.8785 13.2029 12.7935 13.1377 12.6972 13.0867C12.6065 13.0357 12.5073 12.996 12.3997 12.9677C12.292 12.9337 12.19 12.9082 12.0937 12.8912C11.9463 12.8685 11.7905 12.86 11.6262 12.8657C11.4618 12.8714 11.3003 12.8997 11.1417 12.9507C10.9887 12.996 10.847 13.064 10.7167 13.1547C10.5863 13.2397 10.4815 13.3502 10.4022 13.4862C10.2548 13.7469 10.1982 14.0075 10.2322 14.2682C10.2718 14.5232 10.4078 14.7385 10.6402 14.9142C10.7478 14.9935 10.8668 15.0559 10.9972 15.1012C11.1275 15.1409 11.2607 15.1777 11.3967 15.2117C11.5383 15.2457 11.6743 15.2825 11.8047 15.3222Z" fill="#212C3A"/>
<path d="M14.6003 12.911C14.3501 13.0277 14.2418 13.3252 14.3585 13.5754L15.7318 16.5205C15.774 16.6454 15.8652 16.7535 15.9942 16.8136C16.0632 16.8458 16.1358 16.8609 16.2072 16.8606C16.2786 16.8609 16.3512 16.8458 16.4202 16.8136C16.5491 16.7535 16.6404 16.6454 16.6826 16.5205L18.0559 13.5754C18.1726 13.3252 18.0643 13.0277 17.814 12.911C17.5638 12.7943 17.2663 12.9026 17.1496 13.1528L16.2072 15.1738L15.2648 13.1528C15.1481 12.9026 14.8506 12.7943 14.6003 12.911Z" fill="#212C3A"/>
</svg>
