<svg width="24" height="24" viewBox="0 0 24 24"  xmlns="http://www.w3.org/2000/svg">
<path id="Vector" d="M6.25 3C4.46403 3 3 4.46403 3 6.25V17.75C3 19.536 4.46403 21 6.25 21H17.75C19.536 21 21 19.536 21 17.75V6.25C21 4.46403 19.536 3 17.75 3H6.25ZM6.25 4.5H17.75C18.725 4.5 19.5 5.27497 19.5 6.25V7H4.5V6.25C4.5 5.27497 5.27497 4.5 6.25 4.5ZM4.5 8.5H19.5V17.75C19.5 18.725 18.725 19.5 17.75 19.5H6.25C5.27497 19.5 4.5 18.725 4.5 17.75V8.5ZM9.24316 10.4893C9.04509 10.4939 8.85692 10.5768 8.71973 10.7197L6.21973 13.2197C6.07913 13.3604 6.00014 13.5511 6.00014 13.75C6.00014 13.9489 6.07913 14.1396 6.21973 14.2803L8.71973 16.7803C8.78884 16.8523 8.87161 16.9097 8.96321 16.9493C9.0548 16.9889 9.15338 17.0098 9.25316 17.0108C9.35294 17.0118 9.45192 16.9929 9.5443 16.9552C9.63668 16.9175 9.72061 16.8617 9.79117 16.7912C9.86172 16.7206 9.91749 16.6367 9.95521 16.5443C9.99293 16.4519 10.0118 16.3529 10.0108 16.2532C10.0098 16.1534 9.98889 16.0548 9.9493 15.9632C9.90972 15.8716 9.85225 15.7888 9.78027 15.7197L8.56055 14.5H15.4395L14.2197 15.7197C14.1477 15.7888 14.0903 15.8716 14.0507 15.9632C14.0111 16.0548 13.9902 16.1534 13.9892 16.2532C13.9882 16.3529 14.0071 16.4519 14.0448 16.5443C14.0825 16.6367 14.1383 16.7206 14.2088 16.7912C14.2794 16.8617 14.3633 16.9175 14.4557 16.9552C14.5481 16.9929 14.6471 17.0118 14.7468 17.0108C14.8466 17.0098 14.9452 16.9889 15.0368 16.9493C15.1284 16.9097 15.2112 16.8523 15.2803 16.7803L17.7803 14.2803C17.9209 14.1396 17.9999 13.9489 17.9999 13.75C17.9999 13.5511 17.9209 13.3604 17.7803 13.2197L15.2803 10.7197C15.2104 10.6477 15.1267 10.5905 15.0343 10.5514C14.9419 10.5123 14.8425 10.4922 14.7422 10.4922C14.5929 10.4922 14.4471 10.5368 14.3233 10.6202C14.1995 10.7036 14.1034 10.822 14.0473 10.9603C13.9912 11.0986 13.9776 11.2506 14.0084 11.3966C14.0391 11.5427 14.1127 11.6763 14.2197 11.7803L15.4395 13H8.56055L9.78027 11.7803C9.88934 11.6756 9.96423 11.5404 9.99512 11.3924C10.026 11.2444 10.0115 11.0906 9.95341 10.951C9.89534 10.8114 9.79646 10.6927 9.66972 10.6103C9.54297 10.5279 9.39429 10.4857 9.24316 10.4893Z" />
</svg>
