<svg width="24" height="24" viewBox="0 0 24 24"  xmlns="http://www.w3.org/2000/svg">
    <path d="M12.752 4.99959C12.752 4.58537 12.4162 4.24959 12.002 4.24959C11.5877 4.24959 11.252 4.58537 11.252 4.99959V13.6894L8.03219 10.4697C7.7393 10.1768 7.26443 10.1768 6.97153 10.4697C6.67864 10.7626 6.67864 11.2374 6.97153 11.5303L10.7645 15.3233C11.4479 16.0067 12.5559 16.0067 13.2393 15.3233L17.0303 11.5323C17.3232 11.2394 17.3232 10.7645 17.0303 10.4716C16.7374 10.1787 16.2626 10.1787 15.9697 10.4716L12.752 13.6893V4.99959Z"
          />
    <path fill-rule="evenodd" clip-rule="evenodd"
          d="M4 14.25C4.41421 14.25 4.75 14.5858 4.75 15V17C4.75 17.6904 5.30964 18.25 6 18.25H18C18.6904 18.25 19.25 17.6904 19.25 17V15C19.25 14.5858 19.5858 14.25 20 14.25C20.4142 14.25 20.75 14.5858 20.75 15V17C20.75 18.5188 19.5188 19.75 18 19.75H6C4.48122 19.75 3.25 18.5188 3.25 17V15C3.25 14.5858 3.58579 14.25 4 14.25Z"
          />
</svg>
