<svg width="24" height="24" viewBox="0 0 24 24"  xmlns="http://www.w3.org/2000/svg">
    <path fill-rule="evenodd" clip-rule="evenodd"
          d="M2.29334 12.4787C2.4321 12.0885 2.86098 11.8846 3.25126 12.0233L11.2462 14.866C11.7338 15.0393 12.2662 15.0393 12.7538 14.866L20.7487 12.0233C21.139 11.8846 21.5679 12.0885 21.7067 12.4787C21.8454 12.869 21.6415 13.2979 21.2513 13.4367L13.2563 16.2793C12.4437 16.5682 11.5563 16.5682 10.7437 16.2793L2.74874 13.4367C2.35846 13.2979 2.15457 12.869 2.29334 12.4787Z"
          />
    <path fill-rule="evenodd" clip-rule="evenodd"
          d="M2.29334 16.7287C2.4321 16.3385 2.86098 16.1346 3.25126 16.2733L11.2462 19.116C11.7338 19.2893 12.2662 19.2893 12.7538 19.116L20.7487 16.2733C21.139 16.1346 21.5679 16.3385 21.7067 16.7287C21.8454 17.119 21.6415 17.5479 21.2513 17.6867L13.2563 20.5293C12.4437 20.8182 11.5563 20.8182 10.7437 20.5293L2.74874 17.6867C2.35846 17.5479 2.15457 17.119 2.29334 16.7287Z"
          />
    <path fill-rule="evenodd" clip-rule="evenodd"
          d="M13.1106 4.95193C12.3932 4.69103 11.6068 4.69103 10.8893 4.95193L3.84071 7.51506C3.62129 7.59485 3.6213 7.90516 3.84071 7.98495L10.8893 10.5481C11.6068 10.809 12.3932 10.809 13.1106 10.5481L20.1592 7.98495C20.3787 7.90516 20.3787 7.59484 20.1592 7.51506L13.1106 4.95193ZM10.3767 3.54224C11.4253 3.16093 12.5747 3.16093 13.6233 3.54224L20.6719 6.10537C22.2078 6.66389 22.2078 8.83612 20.6719 9.39464L13.6233 11.9578C12.5747 12.3391 11.4253 12.3391 10.3767 11.9578L3.3281 9.39464C1.79216 8.83612 1.79217 6.66388 3.3281 6.10537L10.3767 3.54224Z"
          />
</svg>
