<svg width="24" height="24" viewBox="0 0 24 24" xmlns="http://www.w3.org/2000/svg">
<path d="M19.25 5C19.6642 5 20 5.33579 20 5.75C20 6.16421 19.6642 6.5 19.25 6.5H12.25C11.8358 6.5 11.5 6.16421 11.5 5.75C11.5 5.33579 11.8358 5 12.25 5H19.25Z" />
<path d="M19.25 11.5C19.6642 11.5 20 11.8358 20 12.25C20 12.6642 19.6642 13 19.25 13H12.25C11.8358 13 11.5 12.6642 11.5 12.25C11.5 11.8358 11.8358 11.5 12.25 11.5H19.25Z" />
<path d="M20 18.75C20 18.3358 19.6642 18 19.25 18H5.25C4.83579 18 4.5 18.3358 4.5 18.75C4.5 19.1642 4.83579 19.5 5.25 19.5H19.25C19.6642 19.5 20 19.1642 20 18.75Z" />
<path d="M6.56968 5.53033C6.86257 5.23744 7.33744 5.23744 7.63034 5.53033C7.92323 5.82322 7.92323 6.2981 7.63034 6.59099L5.4663 8.75502C5.3882 8.83313 5.3882 8.95976 5.4663 9.03787L7.56066 11.4393C7.85355 11.7322 7.85355 12.2071 7.56066 12.5C7.26777 12.7929 6.79289 12.7929 6.5 12.5L3.4864 9.17929C3.33019 9.02308 3.3302 8.76981 3.4864 8.6136L6.56968 5.53033Z" />
</svg>
