<svg width="25" height="24" viewBox="0 0 25 24" xmlns="http://www.w3.org/2000/svg">
<path d="M5.25 5C4.83579 5 4.5 5.33579 4.5 5.75C4.5 6.16421 4.83579 6.5 5.25 6.5H12.25C12.6642 6.5 13 6.16421 13 5.75C13 5.33579 12.6642 5 12.25 5H5.25Z" />
<path d="M5.25 11.5C4.83579 11.5 4.5 11.8358 4.5 12.25C4.5 12.6642 4.83579 13 5.25 13H12.25C12.6642 13 13 12.6642 13 12.25C13 11.8358 12.6642 11.5 12.25 11.5H5.25Z" />
<path d="M4.5 18.75C4.5 18.3358 4.83579 18 5.25 18H19.25C19.6642 18 20 18.3358 20 18.75C20 19.1642 19.6642 19.5 19.25 19.5H5.25C4.83579 19.5 4.5 19.1642 4.5 18.75Z" />
<path d="M17.9303 5.53033C17.6374 5.23744 17.1626 5.23744 16.8697 5.53033C16.5768 5.82322 16.5768 6.2981 16.8697 6.59099L19.0337 8.75502C19.1118 8.83313 19.1118 8.95976 19.0337 9.03787L16.9393 11.4393C16.6464 11.7322 16.6464 12.2071 16.9393 12.5C17.2322 12.7929 17.7071 12.7929 18 12.5L21.0136 9.17929C21.1698 9.02308 21.1698 8.76981 21.0136 8.6136L17.9303 5.53033Z" />
</svg>
