<svg width="24" height="24" viewBox="0 0 24 24" fill="none" xmlns="http://www.w3.org/2000/svg">
    <path fill-rule="evenodd" clip-rule="evenodd" d="M12 20.5C16.6944 20.5 20.5 16.6944 20.5 12C20.5 7.30558 16.6944 3.5 12 3.5C7.30558 3.5 3.5 7.30558 3.5 12C3.5 16.6944 7.30558 20.5 12 20.5ZM12 22C17.5228 22 22 17.5228 22 12C22 6.47715 17.5228 2 12 2C6.47715 2 2 6.47715 2 12C2 17.5228 6.47715 22 12 22Z" fill="#212C3A"/>
    <path d="M11.25 11.25L7.75736 11.25C7.34315 11.25 7.00736 11.5858 7.00736 12C7.00736 12.4142 7.34315 12.75 7.75736 12.75L11.25 12.75C11.5 12.75 12.5 12.75 12.75 12.75L16.2426 12.75C16.6569 12.75 16.9926 12.4142 16.9926 12C16.9926 11.5858 16.6569 11.25 16.2426 11.25L12.75 11.25C12.75 11.25 11.5 11.25 11.25 11.25Z" fill="#212C3A"/>
</svg>
