<svg width="24" height="24" viewBox="0 0 24 24"  xmlns="http://www.w3.org/2000/svg">
    <path d="M12.1181 14.715C12.5086 15.1055 13.1418 15.1055 13.5323 14.715C13.9228 14.3244 13.9228 13.6913 13.5323 13.3007C13.1418 12.9102 12.5086 12.9102 12.1181 13.3007C11.7276 13.6913 11.7276 14.3244 12.1181 14.715Z"
          />
    <path fill-rule="evenodd" clip-rule="evenodd"
          d="M3.56395 19.1728L8.32414 4.95879C8.85028 3.38769 10.5648 2.52111 12.0396 3.27613C13.8872 4.22201 15.5819 5.4526 17.0591 6.92802C18.5364 8.40345 19.769 10.0966 20.7172 11.9431C21.474 13.417 20.6096 15.1325 19.0391 15.6606L4.83098 20.4382C4.04815 20.7014 3.30168 19.956 3.56395 19.1728ZM11.356 4.61134C13.0651 5.48628 14.6327 6.62457 15.9991 7.98934C17.3656 9.35411 18.5058 10.9203 19.3828 12.6283C19.6497 13.1479 19.4151 13.9516 18.561 14.2388L17.5463 14.58C16.7491 12.7866 15.627 11.1512 14.2324 9.75825C12.8377 8.36533 11.2009 7.2452 9.40654 6.45025L9.7465 5.43512C10.0326 4.58066 10.836 4.34512 11.356 4.61134ZM16.1176 15.0604L5.30554 18.6961L6.26455 15.8324C7.42503 16.5723 8.98319 16.4356 9.99665 15.4221C11.1682 14.2505 11.1682 12.351 9.99665 11.1795C9.47158 10.6544 8.80031 10.3647 8.11388 10.3102L8.92788 7.87956C10.5035 8.59607 11.942 9.59067 13.1724 10.8196C14.4028 12.0485 15.3991 13.4857 16.1176 15.0604ZM6.81467 14.3614C6.80009 14.3469 6.78588 14.3321 6.77203 14.3171L7.60662 11.8249C8.0743 11.7402 8.57446 11.8786 8.93599 12.2401C9.52178 12.8259 9.52178 13.7757 8.93599 14.3614C8.3502 14.9472 7.40046 14.9472 6.81467 14.3614Z"
          />
</svg>
