<svg width="24" height="24" viewBox="0 0 24 24"  xmlns="http://www.w3.org/2000/svg">
    <path fill-rule="evenodd" clip-rule="evenodd"
          d="M8.69189 2.58078C8.98479 2.28789 9.45966 2.28789 9.75255 2.58078L12 4.82823L14.2474 2.58078C14.5403 2.28789 15.0152 2.28789 15.3081 2.58078C15.601 2.87368 15.601 3.34855 15.3081 3.64144L12.75 6.19955V10.701L16.6483 8.45029L17.5847 4.95585C17.6919 4.55575 18.1031 4.31831 18.5032 4.42552C18.9033 4.53272 19.1408 4.94397 19.0336 5.34407L18.2109 8.41415L21.281 9.23677C21.6811 9.34397 21.9185 9.75523 21.8113 10.1553C21.7041 10.5554 21.2929 10.7929 20.8928 10.6857L17.3983 9.74932L13.5 12L17.3983 14.2507L20.8928 13.3144C21.2929 13.2072 21.7041 13.4446 21.8113 13.8447C21.9185 14.2448 21.6811 14.6561 21.281 14.7633L18.2109 15.5859L19.0335 18.656C19.1408 19.0561 18.9033 19.4673 18.5032 19.5745C18.1031 19.6818 17.6919 19.4443 17.5847 19.0442L16.6483 15.5498L12.75 13.2991V17.8005L15.3081 20.3586C15.601 20.6515 15.601 21.1263 15.3081 21.4192C15.0152 21.7121 14.5403 21.7121 14.2474 21.4192L12 19.1718L9.75255 21.4192C9.45966 21.7121 8.98479 21.7121 8.69189 21.4192C8.399 21.1263 8.399 20.6515 8.69189 20.3586L11.25 17.8005V13.2991L7.35164 15.5498L6.41531 19.0442C6.3081 19.4443 5.89685 19.6818 5.49675 19.5745C5.09665 19.4673 4.85922 19.0561 4.96642 18.656L5.78905 15.5859L2.71897 14.7633C2.31888 14.6561 2.08144 14.2448 2.18864 13.8447C2.29585 13.4446 2.7071 13.2072 3.1072 13.3144L6.60164 14.2507L10.5 12L6.60168 9.74932L3.10724 10.6857C2.70714 10.7929 2.29588 10.5554 2.18868 10.1553C2.08147 9.75523 2.31891 9.34397 2.71901 9.23677L5.78908 8.41415L4.96646 5.34407C4.85925 4.94397 5.09669 4.53272 5.49679 4.42552C5.89689 4.31831 6.30814 4.55575 6.41534 4.95585L7.35168 8.45029L11.25 10.701V6.19955L8.6919 3.64144C8.399 3.34855 8.399 2.87368 8.69189 2.58078Z"
          />
</svg>
