<svg width="24" height="24" viewBox="0 0 24 24"  xmlns="http://www.w3.org/2000/svg">
    <path d="M12 22C6.5 22 2 17.5 2 12C2 6.5 6.5 2 12 2C17.5 2 22 6.5 22 12C22 17.5 17.5 22 12 22ZM12 3.5C7.3 3.5 3.5 7.3 3.5 12C3.5 16.7 7.3 20.5 12 20.5C16.7 20.5 20.5 16.7 20.5 12C20.5 7.3 16.7 3.5 12 3.5Z"
          />
    <path d="M17.2 10.7C17.1 10.7 16.789 10.6172 16.6094 10.4961C16.6094 10.4961 14.6744 9.72565 12.2 9.5C9.39997 9.3 7.49997 9.8 7.39997 9.8C6.99997 9.9 6.61947 9.66952 6.51947 9.26952C6.41947 8.86952 6.62596 8.45895 7.02596 8.35895C7.26569 8.29898 9.294 7.72477 12.394 8.02477C15.494 8.32477 17.3237 9.15035 17.539 9.27342C17.9492 9.5078 18.0312 9.80467 17.8945 10.2812C17.7461 10.5351 17.5 10.7 17.2 10.7Z"
          />
    <path d="M16 13.6C15.9 13.6 15.8125 13.6211 15.2656 13.3867C15.2656 13.3867 13.9648 12.9174 12 12.7465C9.69999 12.5465 8.35594 12.8354 8.35594 12.8354C7.95594 12.9354 7.51168 12.9375 7.26558 12.3828C7.16406 12.043 7.27381 11.582 7.81487 11.4149C7.91487 11.4149 9.39999 11.0414 12 11.2414C14.6 11.4414 15.7388 11.979 16.1642 12.1117C16.5642 12.3117 16.743 12.5664 16.6836 13.0195C16.5469 13.4531 16.2 13.6 16 13.6Z"
          />
    <path d="M14.7001 16.5C14.5234 16.5 14.3484 16.4203 14.2109 16.3477C14.2109 16.3477 13.3555 15.8906 11.7372 15.7405C10.0704 15.5548 8.92763 15.9414 8.92763 15.9414C8.52763 16.0414 8.20006 15.9 8.00006 15.5C7.90006 15.1 8.03173 14.7289 8.43173 14.5289C8.91396 14.3442 9.81729 14.1025 11.8526 14.2398C13.7304 14.3665 14.7195 14.8793 15.082 15.1055C15.5651 15.4069 15.4726 15.9688 15.3164 16.1602C15.1562 16.4102 14.9001 16.5 14.7001 16.5Z"
          />
</svg>
