<svg width="24" height="24" viewBox="0 0 24 24"  xmlns="http://www.w3.org/2000/svg">
    <path d="M7.00934 7.74709C7.00934 5.8157 8.57504 4.25 10.5064 4.25H15.0354C15.4496 4.25 15.7854 3.91421 15.7854 3.5C15.7854 3.08579 15.4496 2.75 15.0354 2.75H10.5064C7.74661 2.75 5.50934 4.98728 5.50934 7.74709C5.50934 8.08584 5.54305 8.41672 5.60729 8.73656C5.69069 9.15175 6.07819 9.41699 6.50167 9.41699H6.59148C6.97084 9.41699 7.21971 9.00361 7.12348 8.63665C7.049 8.35262 7.00934 8.05449 7.00934 7.74709Z"
          />
    <path d="M10.0682 11.217H6.91049L2.64286 11.217C2.28782 11.217 2 11.5752 2 12.017C2 12.4588 2.28782 12.817 2.64286 12.817H13.6972C15.2865 13.1464 16.481 14.5544 16.481 16.2413C16.481 18.1727 14.9153 19.7384 12.9839 19.7384L6.61326 19.7384C6.19905 19.7384 5.86326 20.0742 5.86326 20.4884C5.86326 20.9026 6.19905 21.2384 6.61326 21.2384L12.9839 21.2384C15.7437 21.2384 17.981 19.0011 17.981 16.2413C17.981 14.9161 17.4652 13.7114 16.6233 12.817H21.3571C21.7122 12.817 22 12.4588 22 12.017C22 11.5752 21.7122 11.217 21.3571 11.217L10.0682 11.217Z"
          />
</svg>
