<svg width="24" height="24" viewBox="0 0 24 24"  xmlns="http://www.w3.org/2000/svg">
    <path fill-rule="evenodd" clip-rule="evenodd"
          d="M4 14.25C4.41421 14.25 4.75 14.5858 4.75 15V17C4.75 17.6904 5.30964 18.25 6 18.25H18C18.6904 18.25 19.25 17.6904 19.25 17V15C19.25 14.5858 19.5858 14.25 20 14.25C20.4142 14.25 20.75 14.5858 20.75 15V17C20.75 18.5188 19.5188 19.75 18 19.75H6C4.48122 19.75 3.25 18.5188 3.25 17V15C3.25 14.5858 3.58579 14.25 4 14.25Z"
          />
    <path d="M17.0303 9.46729C17.3232 9.76019 17.3232 10.2351 17.0303 10.528C16.7374 10.8208 16.2626 10.8208 15.9697 10.528L12.752 7.31024V15C12.752 15.4142 12.4162 15.75 12.002 15.75C11.5877 15.75 11.252 15.4142 11.252 15V7.31014L8.03219 10.5299C7.7393 10.8228 7.26443 10.8228 6.97153 10.5299C6.67864 10.237 6.67864 9.76214 6.97153 9.46925L11.4716 4.9692C11.6122 4.82854 11.803 4.74953 12.0019 4.74953C12.2008 4.74953 12.3916 4.82854 12.5322 4.9692L17.0303 9.46729Z"
          />
</svg>
