<svg width="24" height="24" viewBox="0 0 24 24" fill="none" xmlns="http://www.w3.org/2000/svg">
<path d="M9.19453 16.9C9.41391 16.7413 9.46863 16.4307 9.31675 16.2065L8.49676 14.9959L9.31045 13.7946C9.46233 13.5704 9.4076 13.2599 9.18822 13.1011C8.96884 12.9423 8.66788 12.9953 8.516 13.2196L7.90479 14.1219L7.28712 13.21C7.13524 12.9858 6.83428 12.9328 6.6149 13.0916C6.39551 13.2504 6.34079 13.5609 6.49267 13.7851L7.31281 14.9959L6.48594 16.2167C6.33406 16.4409 6.38878 16.7514 6.60817 16.9102C6.82755 17.069 7.12851 17.016 7.28039 16.7917L7.90479 15.8699L8.5223 16.7816C8.67418 17.0058 8.97515 17.0588 9.19453 16.9Z" fill="#212C3A"/>
<path fill-rule="evenodd" clip-rule="evenodd" d="M4 4.25C4 3.01625 5.01625 2 6.25 2H12.75C12.9489 2.00004 13.1396 2.07907 13.2803 2.21973L19.7803 8.71973C19.9209 8.86036 20 9.0511 20 9.25V11.1045C20.5496 11.235 21 11.6649 21 12.25V17.75C21 18.3351 20.5496 18.765 20 18.8955V19.75C20 20.9838 18.9838 22 17.75 22H6.25C5.01625 22 4 20.9838 4 19.75V18.8955C3.45042 18.765 3 18.3351 3 17.75V12.25C3 11.6649 3.45042 11.235 4 11.1045V4.25ZM12 3.5H6.25C5.82675 3.5 5.5 3.82675 5.5 4.25V11H18.5V10H14.25C13.0162 10 12 8.98375 12 7.75V3.5ZM17.4395 8.5L13.5 4.56055V7.75C13.5 8.17325 13.8268 8.5 14.25 8.5H17.4395ZM19.5 17.5V12.5H4.5V17.5H19.5ZM18.5 19.75V19H5.5V19.75C5.5 20.1733 5.82675 20.5 6.25 20.5H17.75C18.1732 20.5 18.5 20.1733 18.5 19.75Z" fill="#212C3A"/>
<path d="M15 13.5C15 13.2239 15.2239 13 15.5 13C15.7761 13 16 13.2239 16 13.5V16H17.5C17.7761 16 18 16.2239 18 16.5C18 16.7761 17.7761 17 17.5 17H15.5C15.2239 17 15 16.7761 15 16.5V13.5Z" fill="#212C3A"/>
<path d="M10.7002 13.03C10.7497 13.0121 10.8009 13.0026 10.8516 13.0007C11.0036 12.995 11.1527 13.0583 11.2539 13.1794L12.1201 14.2185L12.9863 13.1794C13.1213 13.0174 13.343 12.9585 13.54 13.03C13.738 13.1015 13.8701 13.2892 13.8701 13.4997V16.4997C13.8701 16.7757 13.6461 16.9997 13.3701 16.9997C13.0941 16.9997 12.8701 16.7757 12.8701 16.4997V14.8806L12.5039 15.32C12.3139 15.548 11.9263 15.548 11.7363 15.32L11.3701 14.8806V16.4997C11.3701 16.7757 11.1461 16.9997 10.8701 16.9997C10.5941 16.9997 10.3701 16.7757 10.3701 16.4997V13.4997C10.3701 13.2892 10.5022 13.1015 10.7002 13.03Z" fill="#212C3A"/>
</svg>
