<svg width="24" height="24" viewBox="0 0 24 24"  xmlns="http://www.w3.org/2000/svg">
    <path fill-rule="evenodd" clip-rule="evenodd"
          d="M18.8765 7.43719C17.6073 6.16798 15.5495 6.16798 14.2803 7.43719L8.62347 13.094C8.13532 13.5822 8.13532 14.3737 8.62347 14.8618C9.11163 15.35 9.90308 15.35 10.3912 14.8618L16.0481 9.20495C16.341 8.91206 16.8159 8.91206 17.1088 9.20495C17.4016 9.49784 17.4016 9.97272 17.1088 10.2656L11.4519 15.9225C10.378 16.9964 8.63675 16.9964 7.56281 15.9225C6.48887 14.8485 6.48887 13.1073 7.56281 12.0334L13.2197 6.37653C15.0747 4.52154 18.0822 4.52154 19.9372 6.37653C21.7922 8.23152 21.7922 11.239 19.9372 13.094L14.2803 18.7509C11.6443 21.3869 7.37042 21.3869 4.73438 18.7509C2.09835 16.1149 2.09835 11.841 4.73438 9.20495L10.3912 3.5481C10.6841 3.2552 11.159 3.2552 11.4519 3.5481C11.7448 3.84099 11.7448 4.31586 11.4519 4.60876L5.79504 10.2656C3.74479 12.3159 3.74479 15.64 5.79504 17.6902C7.8453 19.7405 11.1694 19.7405 13.2197 17.6902L18.8765 12.0334C20.1457 10.7642 20.1457 8.70639 18.8765 7.43719Z"
          />
</svg>
