<svg width="25" height="24" viewBox="0 0 25 24" fill="none" xmlns="http://www.w3.org/2000/svg">
<g id="dawnload_doc-24px">
<path id="Union" fill-rule="evenodd" clip-rule="evenodd" d="M21.667 19C21.667 20.6569 20.3238 22 18.667 22H6.66699C5.01014 22 3.66699 20.6569 3.66699 19V5C3.66699 3.34315 5.01014 2 6.66699 2H16.4244C16.677 2 16.9263 2.03186 17.167 2.09336C17.2106 2.1045 17.2539 2.11661 17.2969 2.12968C17.7641 2.27172 18.194 2.52705 18.5457 2.87868L20.7883 5.12132C21.1723 5.5053 21.4414 5.98265 21.5736 6.5C21.5746 6.5038 21.5756 6.50759 21.5765 6.51139C21.6361 6.74854 21.667 6.994 21.667 7.24264V19ZM18.667 20.5H6.66699C5.83857 20.5 5.16699 19.8284 5.16699 19V5C5.16699 4.17157 5.83856 3.5 6.66699 3.5H15.667V5C15.667 6.65685 17.0101 8 18.667 8H20.167V19C20.167 19.8284 19.4954 20.5 18.667 20.5ZM19.9703 6.5C19.9045 6.38463 19.8232 6.27752 19.7277 6.18198L17.485 3.93934C17.3971 3.85143 17.2994 3.77556 17.1945 3.71279C17.1854 3.70734 17.1762 3.70199 17.167 3.69674V5C17.167 5.82843 17.8386 6.5 18.667 6.5H19.9703Z" fill="#212C3A"/>
<g id="Union_2">
<path d="M12.6669 8.29492C12.2527 8.29492 11.9169 8.63071 11.9169 9.04492L11.9169 12.0449C11.9169 12.4591 12.2527 12.7949 12.6669 12.7949C13.0811 12.7949 13.4169 12.4591 13.4169 12.0449L13.4169 9.04492C13.4169 8.63071 13.0811 8.29492 12.6669 8.29492Z" fill="#212C3A"/>
<path d="M9.99237 12.3041C9.69948 12.597 9.69948 13.0719 9.99237 13.3648L12.1137 15.4861C12.2929 15.6653 12.5402 15.7349 12.7723 15.6948C12.9208 15.672 13.0639 15.6045 13.18 15.4919L15.3333 13.4031C15.6307 13.1147 15.6379 12.6399 15.3495 12.3425C15.0611 12.0452 14.5863 12.038 14.2889 12.3264L12.6577 13.9088L11.053 12.3041C10.7601 12.0112 10.2853 12.0112 9.99237 12.3041Z" fill="#212C3A"/>
</g>
</g>
</svg>
