<svg width="24" height="24" viewBox="0 0 24 24" xmlns="http://www.w3.org/2000/svg">
    <path d="M12 20.5C12.9605 20.5 13.8838 20.3407 14.7448 20.0471C14.8194 20.013 14.8891 19.9879 14.951 19.9738L14.9676 19.9676L14.9682 19.9701C14.9985 19.9641 15.0267 19.9609 15.0524 19.9609C15.471 19.9609 15.8337 20.3002 15.8337 20.7188C15.8337 21.0609 15.6071 21.35 15.2957 21.4442C14.2637 21.8043 13.1547 22 12 22C6.47716 22 2 17.5228 2 12C2 6.47717 6.47716 2 12 2C17.5228 2 22 6.47717 22 12C22 14.1837 21.3 16.204 20.1122 17.8487C19.9799 18.0673 19.7399 18.2134 19.4657 18.2134C19.0487 18.2134 18.7106 17.8753 18.7106 17.4583C18.7106 17.2574 18.7884 17.1396 18.9168 16.9451L18.928 16.928L18.9271 16.9271C19.9175 15.5372 20.5 13.8367 20.5 12C20.5 7.3056 16.6944 3.5 12 3.5C7.30557 3.5 3.5 7.3056 3.5 12C3.5 16.6944 7.30557 20.5 12 20.5Z" />
    <path d="M12.75 7C12.75 6.58582 12.4142 6.25 12 6.25C11.5858 6.25 11.25 6.58582 11.25 7V11.5858C11.25 12.0499 11.4344 12.4951 11.7626 12.8232L13.9697 15.0303C14.2626 15.3232 14.7374 15.3232 15.0303 15.0303C15.3232 14.7374 15.3232 14.2626 15.0303 13.9697L12.8232 11.7626C12.7763 11.7157 12.75 11.6521 12.75 11.5858V7Z" />
    <path d="M20.821 19.6989C20.821 20.1131 20.4853 20.4489 20.071 20.4489H17.071C16.8176 20.4489 16.5936 20.3232 16.4578 20.1307C16.3689 20.0096 16.3154 19.8606 16.313 19.6989L16.2673 16.6993C16.261 16.2851 16.5917 15.9443 17.0058 15.938C17.42 15.9316 17.7609 16.2623 17.7672 16.6765L17.8018 18.9489H20.071C20.4853 18.9489 20.821 19.2847 20.821 19.6989Z" />
</svg>
