<svg width="24" height="24" viewBox="0 0 24 24"  xmlns="http://www.w3.org/2000/svg">
    <path fill-rule="evenodd" clip-rule="evenodd"
          d="M19.7782 4.22177C18.2161 2.65968 15.6834 2.65968 14.1213 4.22177L13.3788 4.96424C12.4082 4.32114 11.0875 4.4272 10.2322 5.28243C9.37697 6.13769 9.27092 7.45843 9.91408 8.42912L5.63615 12.7071C5.17716 13.166 4.87942 13.7615 4.78762 14.4041L4.71691 14.8991C4.62511 15.5417 4.32737 16.1372 3.86838 16.5961C3.08733 17.3772 3.08733 18.6435 3.86838 19.4246L4.57549 20.1317C5.35653 20.9127 6.62286 20.9127 7.40391 20.1317C7.8629 19.6727 8.45838 19.3749 9.10097 19.2831L9.59594 19.2124C10.2385 19.1206 10.834 18.8229 11.293 18.3639L15.571 14.086C16.5416 14.729 17.8623 14.6229 18.7175 13.7677C19.5727 12.9125 19.6788 11.5918 19.0357 10.6211L19.7782 9.87863C21.3403 8.31653 21.3403 5.78387 19.7782 4.22177ZM12.5504 6.2147L13.5725 6.89189L15.182 5.28243C16.1583 4.30612 17.7412 4.30612 18.7175 5.28243C19.6938 6.25874 19.6938 7.84166 18.7175 8.81797L17.108 10.4274L17.7852 11.4496C18.0421 11.8373 17.9977 12.3662 17.6568 12.7071C17.2663 13.0976 16.6332 13.0976 16.2426 12.7071L11.2929 7.75731C10.9024 7.36678 10.9024 6.73362 11.2929 6.34309C11.6337 6.00224 12.1626 5.95782 12.5504 6.2147ZM14.4749 13.0607L10.9394 9.52513L6.69681 13.7677C6.46731 13.9972 6.31844 14.2949 6.27254 14.6162L6.20183 15.1112C6.06413 16.0751 5.61753 16.9683 4.92904 17.6568C4.73378 17.8521 4.73378 18.1686 4.92904 18.3639L5.63615 19.071C5.83141 19.2663 6.14799 19.2663 6.34325 19.071C7.03174 18.3825 7.92496 17.9359 8.88884 17.7982L9.38381 17.7275C9.70511 17.6816 10.0028 17.5327 10.2323 17.3032L14.4749 13.0607Z"
          />
</svg>
