<svg width="24" height="24" viewBox="0 0 24 24"  xmlns="http://www.w3.org/2000/svg">
    <path fill-rule="evenodd" clip-rule="evenodd"
          d="M18.1 16.2L14.1 13.2C13.3 12.6 13.3 11.4 14.1 10.8L18.1 7.8C19.0889 7.05836 20.5 7.76393 20.5 9V15C20.5 16.2361 19.0889 16.9416 18.1 16.2ZM13.2 14.4C11.6 13.2 11.6 10.8 13.2 9.6L17.2 6.6C19.1777 5.11672 22 6.52786 22 9V15C22 17.4721 19.1777 18.8833 17.2 17.4L13.2 14.4Z"
          />
    <path fill-rule="evenodd" clip-rule="evenodd"
          d="M8.1 16.2L4.1 13.2C3.3 12.6 3.3 11.4 4.1 10.8L8.1 7.8C9.08885 7.05836 10.5 7.76393 10.5 9V15C10.5 16.2361 9.08885 16.9416 8.1 16.2ZM3.2 14.4C1.6 13.2 1.6 10.8 3.2 9.6L7.2 6.6C9.17771 5.11672 12 6.52786 12 9V15C12 17.4721 9.17771 18.8833 7.2 17.4L3.2 14.4Z"
          />
</svg>
