<svg width="24" height="24" viewBox="0 0 24 24"  xmlns="http://www.w3.org/2000/svg">
    <path fill-rule="evenodd" clip-rule="evenodd"
          d="M13.6554 8.18683C13.5161 7.8904 13.2563 7.6688 12.9637 7.57059C12.6555 7.46716 12.1952 7.47871 11.8672 7.85597C11.1207 8.71443 10.5451 10.2981 10.6688 11.946C10.5559 11.9317 10.4368 11.8971 10.3253 11.8348C10.1458 11.7345 9.93371 11.5344 9.79864 11.1026C9.68303 10.733 9.35485 10.5189 9.02553 10.5021C8.67643 10.4842 8.28684 10.6936 8.17051 11.1225C7.88343 12.1811 7.94178 13.6672 8.56685 14.9163C9.21949 16.2205 10.4895 17.25 12.5 17.25C13.5024 17.25 14.3234 16.9977 14.953 16.5332C15.5822 16.0691 15.9625 15.4356 16.157 14.7741C16.5344 13.4911 16.2428 12.0122 15.624 11.084C15.3501 10.6731 15.0437 10.2502 14.7585 9.8566C14.6549 9.71348 14.5539 9.57412 14.4584 9.4407C14.0825 8.91566 13.7997 8.49422 13.6554 8.18683ZM12.1704 11.9025C12.0836 10.9482 12.3141 10.0449 12.6274 9.41617C12.8106 9.70903 13.0247 10.0149 13.2387 10.3139C13.345 10.4623 13.4526 10.6108 13.5602 10.7594C13.8398 11.1453 14.1195 11.5314 14.376 11.916C14.7572 12.4879 14.9656 13.5089 14.718 14.3509C14.6 14.7519 14.3865 15.0872 14.0626 15.3262C13.7391 15.5648 13.2476 15.75 12.5 15.75C11.1036 15.75 10.3281 15.0839 9.90826 14.245C9.73169 13.8922 9.61842 13.5066 9.55818 13.124C9.56992 13.1309 9.58172 13.1376 9.59355 13.1442C10.114 13.435 10.6685 13.4911 11.1063 13.4334C11.5554 13.3742 11.8628 13.0943 12.0228 12.773C12.1687 12.4803 12.1939 12.162 12.1704 11.9025Z"
          />
    <path fill-rule="evenodd" clip-rule="evenodd"
          d="M6 22H18C19.6569 22 21 20.6569 21 19V7.24264C21 6.994 20.9691 6.74854 20.9095 6.51139L20.9066 6.5C20.7744 5.98265 20.5053 5.5053 20.1213 5.12132L17.8787 2.87868C17.527 2.52705 17.0971 2.27172 16.6299 2.12968C16.5869 2.11661 16.5436 2.1045 16.5 2.09336C16.2593 2.03186 16.01 2 15.7574 2H6C4.34315 2 3 3.34315 3 5V19C3 20.6569 4.34315 22 6 22ZM6 20.5H18C18.8284 20.5 19.5 19.8284 19.5 19V8H17C15.8954 8 15 7.10457 15 6V3.5H6C5.17157 3.5 4.5 4.17157 4.5 5V19C4.5 19.8284 5.17157 20.5 6 20.5ZM19.0607 6.18198C19.1562 6.27752 19.2375 6.38463 19.3033 6.5H17C16.7239 6.5 16.5 6.27614 16.5 6V3.69674C16.5092 3.70199 16.5184 3.70734 16.5275 3.71279C16.6324 3.77556 16.7301 3.85143 16.818 3.93934L19.0607 6.18198Z"
          />
</svg>
