<svg width="24" height="24" viewBox="0 0 24 24"  xmlns="http://www.w3.org/2000/svg">
    <path fill-rule="evenodd" clip-rule="evenodd"
          d="M12 15.5C13.3807 15.5 14.5 14.3807 14.5 13C14.5 11.6193 13.3807 10.5 12 10.5C10.6193 10.5 9.5 11.6193 9.5 13C9.5 14.3807 10.6193 15.5 12 15.5ZM16 13C16 15.2091 14.2091 17 12 17C9.79086 17 8 15.2091 8 13C8 10.7909 9.79086 9 12 9C14.2091 9 16 10.7909 16 13Z"
          />
    <path fill-rule="evenodd" clip-rule="evenodd"
          d="M17 6.5C16.4318 6.5 15.9124 6.179 15.6584 5.67082L15.4875 5.32918C15.2334 4.821 14.7141 4.5 14.1459 4.5H9.8541C9.28594 4.5 8.76655 4.821 8.51246 5.32918L8.34164 5.67082C8.08755 6.179 7.56816 6.5 7 6.5H5C4.17157 6.5 3.5 7.17157 3.5 8V18C3.5 18.8284 4.17157 19.5 5 19.5H19C19.8284 19.5 20.5 18.8284 20.5 18V8C20.5 7.17157 19.8284 6.5 19 6.5H17ZM17 5L16.8292 4.65836C16.321 3.64201 15.2822 3 14.1459 3H9.8541C8.71778 3 7.679 3.64201 7.17082 4.65836L7 5H5C3.34315 5 2 6.34315 2 8V18C2 19.6569 3.34315 21 5 21H19C20.6569 21 22 19.6569 22 18V8C22 6.34315 20.6569 5 19 5H17Z"
          />
    <path d="M19 9C19 9.55229 18.5523 10 18 10C17.4477 10 17 9.55229 17 9C17 8.44772 17.4477 8 18 8C18.5523 8 19 8.44772 19 9Z"
          />
</svg>
