<svg width="24" height="24" viewBox="0 0 24 24"  xmlns="http://www.w3.org/2000/svg">
    <path d="M15 9.16556C15 9.54372 15.3148 9.84472 15.693 9.8434C16.1345 9.84187 16.5244 9.85484 17.0617 9.85484C19.76 9.85484 20.6452 11.7451 20.6452 12.477L20.6452 14.6753C20.6452 15.8958 20.0055 16.9242 19.7167 17.2491L19.705 17.2622L16.64 21.0935C16.6153 21.0801 16.6015 21.0673 16.5939 21.0596C16.5601 21.0253 16.5022 20.9356 16.4799 20.7209C16.4332 20.2702 16.5763 19.5958 16.8351 18.873C17.1981 17.8589 16.5161 16.5844 15.3055 16.5844H13.3555C13.3239 16.5844 13.2716 16.5844 13.208 16.5844C12.8171 16.5844 12.5 16.8831 12.5 17.274C12.5 17.6649 12.8163 18 13.2072 18C13.2822 18 13.3776 18 13.5 18L15.3055 17.9642C15.3852 17.9642 15.4624 18.0027 15.5205 18.0931C15.5813 18.1878 15.5981 18.3087 15.5595 18.4164C15.2865 19.1792 15.0528 20.0937 15.1323 20.8606C15.1732 21.2547 15.3041 21.6808 15.6286 22.0103C15.965 22.3519 16.4204 22.5 16.9243 22.5C17.1301 22.5 17.3247 22.4065 17.4532 22.2458L20.7418 18.135C21.1889 17.6244 22 16.2985 22 14.6753V12.4762C22 11.0089 20.5211 8.5 17.0617 8.5H15.6656C15.298 8.5 15 8.79798 15 9.16556Z"
          />
    <path fill-rule="evenodd" clip-rule="evenodd"
          d="M6.54676 2.25424C6.67532 2.09354 6.86995 2 7.07574 2C7.5796 2 8.03499 2.1481 8.37143 2.48972C8.69588 2.81917 8.82684 3.24533 8.86771 3.6394C8.94723 4.4063 8.71354 5.32084 8.44046 6.08365C8.40192 6.19131 8.4187 6.3122 8.47953 6.4069C8.5376 6.49732 8.61475 6.53576 8.69451 6.53576H10.6494C11.7106 6.53576 12.4817 6.85292 12.919 7.47758C13.3294 8.06388 13.3227 8.7536 13.2437 9.23731L12.6953 13.3504C12.5566 14.3905 12.0158 15.087 11.299 15.4979C10.6162 15.8894 9.81607 16 9.13745 16H6.93829C3.47894 16 2 13.4911 2 12.0238V9.82468C2 8.20151 2.81105 6.87556 3.25816 6.365L6.54676 2.25424ZM7.35997 3.40653L4.29499 7.23775L4.28331 7.25089C3.99455 7.57575 3.35484 8.60424 3.35484 9.82468V12.023C3.35484 12.7549 4.24 14.6452 6.93829 14.6452H9.13745C9.69585 14.6452 10.229 14.5496 10.6252 14.3225C10.9873 14.115 11.2711 13.7806 11.3524 13.1713L11.9036 9.03697L11.9054 9.02608C11.9622 8.68563 11.9246 8.41953 11.8091 8.25453C11.7172 8.12323 11.4574 7.8906 10.6494 7.8906H8.69451C7.48388 7.8906 6.80185 6.6411 7.1649 5.627C7.42365 4.90422 7.56683 4.22981 7.52009 3.77915C7.49783 3.56444 7.43988 3.47467 7.40612 3.44039C7.3985 3.43266 7.38474 3.41988 7.35997 3.40653Z"
          />
</svg>
