<svg width="24" height="24" viewBox="0 0 24 24"  xmlns="http://www.w3.org/2000/svg">
    <path fill-rule="evenodd" clip-rule="evenodd"
          d="M5.03972 19.3477C5.57383 18.9026 6.3438 18.8829 6.9 19.3L8 20.125L9.1 19.3C9.63333 18.9 10.3667 18.9 10.9 19.3L12 20.125L13.1 19.3C13.6333 18.9 14.3667 18.9 14.9 19.3L16 20.125L17.1 19.3C17.6562 18.8829 18.4262 18.9026 18.9603 19.3477L19.5 19.7974V4.20257L18.9603 4.65233C18.4262 5.09743 17.6562 5.11716 17.1 4.7L16 3.875L14.9 4.7C14.3667 5.1 13.6333 5.1 13.1 4.7L12 3.875L10.9 4.7C10.3667 5.1 9.63333 5.1 9.1 4.7L8 3.875L6.9 4.7C6.3438 5.11716 5.57383 5.09743 5.03972 4.65233L4.5 4.20257V19.7974L5.03972 19.3477ZM6 3.5L4.64018 2.36682C3.98886 1.82405 3 2.28721 3 3.13504V20.865C3 21.7128 3.98886 22.176 4.64018 21.6332L6 20.5L7.4 21.55C7.75556 21.8167 8.24444 21.8167 8.6 21.55L10 20.5L11.4 21.55C11.7556 21.8167 12.2444 21.8167 12.6 21.55L14 20.5L15.4 21.55C15.7556 21.8167 16.2444 21.8167 16.6 21.55L18 20.5L19.3598 21.6332C20.0111 22.176 21 21.7128 21 20.865V3.13504C21 2.28721 20.0111 1.82405 19.3598 2.36682L18 3.5L16.6 2.45C16.2444 2.18334 15.7556 2.18334 15.4 2.45L14 3.5L12.6 2.45C12.2444 2.18334 11.7556 2.18334 11.4 2.45L10 3.5L8.6 2.45C8.24444 2.18334 7.75556 2.18334 7.4 2.45L6 3.5Z"
          />
    <path fill-rule="evenodd" clip-rule="evenodd"
          d="M7.25 10C7.25 9.58579 7.58579 9.25 8 9.25H16C16.4142 9.25 16.75 9.58579 16.75 10C16.75 10.4142 16.4142 10.75 16 10.75H8C7.58579 10.75 7.25 10.4142 7.25 10Z"
          />
    <path fill-rule="evenodd" clip-rule="evenodd"
          d="M7.25 14C7.25 13.5858 7.58579 13.25 8 13.25H12C12.4142 13.25 12.75 13.5858 12.75 14C12.75 14.4142 12.4142 14.75 12 14.75H8C7.58579 14.75 7.25 14.4142 7.25 14Z"
          />
</svg>
