<svg width="24" height="24" viewBox="0 0 24 24"  xmlns="http://www.w3.org/2000/svg">
    <path fill-rule="evenodd" clip-rule="evenodd"
          d="M11.5257 3.23925L5.52566 5.23925C4.91314 5.44342 4.5 6.01663 4.5 6.66228V12C4.5 14.207 5.60849 16.0569 7.13263 17.5651C8.65915 19.0756 10.4852 20.1206 11.6051 20.6747C11.8585 20.8001 12.1415 20.8001 12.3949 20.6747C13.5148 20.1206 15.3408 19.0756 16.8674 17.5651C18.3915 16.0569 19.5 14.207 19.5 12V6.66228C19.5 6.01663 19.0869 5.44342 18.4743 5.23925L12.4743 3.23925C12.1664 3.13662 11.8336 3.13662 11.5257 3.23925ZM5.05132 3.81623C3.82629 4.22457 3 5.37099 3 6.66228V12C3 17.502 8.56019 20.8417 10.9399 22.0192C11.6125 22.3519 12.3875 22.3519 13.0601 22.0192C15.4398 20.8417 21 17.502 21 12V6.66228C21 5.37099 20.1737 4.22457 18.9487 3.81623L12.9487 1.81623C12.3329 1.61096 11.6671 1.61096 11.0513 1.81623L5.05132 3.81623Z"
          />
    <path fill-rule="evenodd" clip-rule="evenodd"
          d="M15.5303 9.46967C15.8232 9.76256 15.8232 10.2374 15.5303 10.5303L12.096 13.9646C11.4907 14.57 10.5093 14.57 9.90399 13.9646L8.46967 12.5303C8.17678 12.2374 8.17678 11.7626 8.46967 11.4697C8.76256 11.1768 9.23744 11.1768 9.53033 11.4697L10.9646 12.904C10.9842 12.9235 11.0158 12.9235 11.0354 12.904L14.4697 9.46967C14.7626 9.17678 15.2374 9.17678 15.5303 9.46967Z"
          />
</svg>
