<svg width="24" height="24" viewBox="0 0 24 24"  xmlns="http://www.w3.org/2000/svg">
    <path fill-rule="evenodd" clip-rule="evenodd"
          d="M13.4178 6.64743L12.4723 3.92727C12.3166 3.4795 11.6834 3.47949 11.5277 3.92727L10.5822 6.64743C10.1015 8.03018 8.81112 8.96772 7.34752 8.99755L4.46831 9.05622C3.99435 9.06588 3.79866 9.66815 4.17643 9.95456L6.47127 11.6944C7.63781 12.5788 8.13071 14.0958 7.7068 15.497L6.87287 18.2534C6.7356 18.7071 7.24792 19.0794 7.63705 18.8086L10.0009 17.1637C11.2025 16.3275 12.7975 16.3275 13.9991 17.1637L16.3629 18.8086C16.7521 19.0793 17.2644 18.7071 17.1271 18.2534L16.2932 15.497C15.8693 14.0958 16.3622 12.5788 17.5287 11.6944L19.8236 9.95455C20.2013 9.66815 20.0056 9.06588 19.5317 9.05622L16.6525 8.99755C15.1889 8.96772 13.8984 8.03018 13.4178 6.64743ZM13.8891 3.43478C13.2665 1.64366 10.7335 1.64366 10.1109 3.43478L9.16534 6.15494C8.89068 6.94508 8.1533 7.48082 7.31696 7.49786L4.43775 7.55653C2.5419 7.59517 1.75914 10.0043 3.27021 11.1499L5.56505 12.8897C6.23164 13.3951 6.5133 14.2619 6.27106 15.0626L5.43714 17.819C4.88804 19.634 6.93733 21.1229 8.49382 20.0398L10.8576 18.3949C11.5443 17.9171 12.4557 17.9171 13.1424 18.3949L15.5062 20.0398C17.0626 21.1229 19.1119 19.634 18.5628 17.819L17.7289 15.0626C17.4867 14.2619 17.7683 13.3951 18.4349 12.8897L20.7298 11.1499C22.2408 10.0043 21.4581 7.59517 19.5622 7.55653L16.683 7.49786C15.8467 7.48082 15.1093 6.94508 14.8346 6.15494L13.8891 3.43478Z"
          />
</svg>
