<svg width="24" height="24" viewBox="0 0 24 24"  xmlns="http://www.w3.org/2000/svg">
    <path fill-rule="evenodd" clip-rule="evenodd"
          d="M11.0015 18.1199C11.4109 17.7104 12.0195 17.5732 12.565 17.7674C14.5068 18.4584 16.7535 18.0247 18.3033 16.4749C20.4512 14.327 20.4512 10.8446 18.3033 8.6967C16.1554 6.54881 12.673 6.54881 10.5251 8.6967C8.97531 10.2465 8.5416 12.4932 9.23264 14.435C9.4268 14.9805 9.28959 15.5891 8.88013 15.9985L7.69669 17.182C7.11091 17.7678 7.11091 18.7175 7.69669 19.3033C8.28248 19.8891 9.23223 19.8891 9.81802 19.3033L11.0015 18.1199ZM12.0621 19.1805L10.8787 20.364C9.7071 21.5355 7.80761 21.5355 6.63603 20.364C5.46446 19.1924 5.46446 17.2929 6.63603 16.1213L7.81947 14.9379C6.94161 12.4712 7.48994 9.61056 9.46446 7.63604C12.1981 4.90237 16.6303 4.90237 19.364 7.63604C22.0976 10.3697 22.0976 14.8019 19.364 17.5355C17.3894 19.5101 14.5288 20.0584 12.0621 19.1805Z"
          />
    <path fill-rule="evenodd" clip-rule="evenodd"
          d="M5 6.5C5.82843 6.5 6.5 5.82843 6.5 5C6.5 4.17157 5.82843 3.5 5 3.5C4.17157 3.5 3.5 4.17157 3.5 5C3.5 5.82843 4.17157 6.5 5 6.5ZM5 8C6.65685 8 8 6.65685 8 5C8 3.34315 6.65685 2 5 2C3.34315 2 2 3.34315 2 5C2 6.65685 3.34315 8 5 8Z"
          />
</svg>
