<svg xmlns="http://www.w3.org/2000/svg" width="69" height="69" viewBox="0 0 69 69" fill="none">
<mask id="path-1-inside-1_437_14068" fill="white">
<path d="M17.7206 52.3201C20.9194 55.1947 24.8185 57.1766 29.0261 58.0666C33.2336 58.9567 37.6013 58.7235 41.6902 57.3905C45.779 56.0576 49.445 53.6718 52.3195 50.473C55.1941 47.2741 57.176 43.375 58.0661 39.1675L53.2722 38.1534C52.5601 41.5194 50.9746 44.6387 48.6749 47.1978C46.3753 49.7568 43.4425 51.6655 40.1714 52.7318C36.9003 53.7982 33.4062 53.9847 30.0402 53.2727C26.6741 52.5607 23.5548 50.9751 20.9958 48.6755L17.7206 52.3201Z"/>
</mask>
<path d="M17.7206 52.3201C20.9194 55.1947 24.8185 57.1766 29.0261 58.0666C33.2336 58.9567 37.6013 58.7235 41.6902 57.3905C45.779 56.0576 49.445 53.6718 52.3195 50.473C55.1941 47.2741 57.176 43.375 58.0661 39.1675L53.2722 38.1534C52.5601 41.5194 50.9746 44.6387 48.6749 47.1978C46.3753 49.7568 43.4425 51.6655 40.1714 52.7318C36.9003 53.7982 33.4062 53.9847 30.0402 53.2727C26.6741 52.5607 23.5548 50.9751 20.9958 48.6755L17.7206 52.3201Z" stroke="#00A7E5" stroke-width="8" mask="url(#path-1-inside-1_437_14068)"/>
<mask id="path-2-inside-2_437_14068" fill="white">
<path d="M58.5123 36.1322C58.847 32.1171 58.1863 28.0814 56.5888 24.3826C54.9913 20.6838 52.5062 17.4361 49.3537 14.9271C46.2012 12.4181 42.4786 10.7253 38.5156 9.99867C34.5527 9.27202 30.4716 9.53394 26.634 10.7612C22.7965 11.9885 19.3208 14.1433 16.5149 17.0347C13.709 19.9261 11.6595 23.4648 10.5479 27.3375C9.4363 31.2102 9.29695 35.2972 10.1422 39.2366C10.9874 43.176 12.7911 46.8462 15.3936 49.922L19.1343 46.757C17.0523 44.2963 15.6093 41.3602 14.9331 38.2087C14.257 35.0572 14.3684 31.7875 15.2577 28.6894C16.147 25.5913 17.7866 22.7602 20.0313 20.4471C22.276 18.134 25.0566 16.4102 28.1266 15.4284C31.1967 14.4465 34.4615 14.237 37.6319 14.8183C40.8023 15.3996 43.7804 16.7539 46.3024 18.7611C48.8244 20.7682 50.8124 23.3664 52.0905 26.3255C53.3685 29.2845 53.897 32.5131 53.6292 35.7252L58.5123 36.1322Z"/>
</mask>
<path d="M58.5123 36.1322C58.847 32.1171 58.1863 28.0814 56.5888 24.3826C54.9913 20.6838 52.5062 17.4361 49.3537 14.9271C46.2012 12.4181 42.4786 10.7253 38.5156 9.99867C34.5527 9.27202 30.4716 9.53394 26.634 10.7612C22.7965 11.9885 19.3208 14.1433 16.5149 17.0347C13.709 19.9261 11.6595 23.4648 10.5479 27.3375C9.4363 31.2102 9.29695 35.2972 10.1422 39.2366C10.9874 43.176 12.7911 46.8462 15.3936 49.922L19.1343 46.757C17.0523 44.2963 15.6093 41.3602 14.9331 38.2087C14.257 35.0572 14.3684 31.7875 15.2577 28.6894C16.147 25.5913 17.7866 22.7602 20.0313 20.4471C22.276 18.134 25.0566 16.4102 28.1266 15.4284C31.1967 14.4465 34.4615 14.237 37.6319 14.8183C40.8023 15.3996 43.7804 16.7539 46.3024 18.7611C48.8244 20.7682 50.8124 23.3664 52.0905 26.3255C53.3685 29.2845 53.897 32.5131 53.6292 35.7252L58.5123 36.1322Z" stroke="#212C3A" stroke-width="8" mask="url(#path-2-inside-2_437_14068)"/>
</svg>