<svg width="24" height="24" viewBox="0 0 24 24"  xmlns="http://www.w3.org/2000/svg">
    <path fill-rule="evenodd" clip-rule="evenodd"
          d="M9.73335 5.00176C9.56397 4.21129 8.43604 4.21128 8.26665 5.00176L7.07212 10.5762C6.80042 11.8441 5.6799 12.75 4.38317 12.75H3C2.58579 12.75 2.25 12.4142 2.25 12C2.25 11.5858 2.58579 11.25 3 11.25H4.38317C4.97259 11.25 5.48192 10.8382 5.60542 10.2619L6.79994 4.68747C7.3081 2.31606 10.6919 2.31604 11.2001 4.68746L14.2666 18.9982C14.436 19.7887 15.564 19.7887 15.7334 18.9982L16.9279 13.4238C17.1996 12.1558 18.3201 11.25 19.6168 11.25H21C21.4142 11.25 21.75 11.5858 21.75 12C21.75 12.4142 21.4142 12.75 21 12.75H19.6168C19.0274 12.75 18.5181 13.1617 18.3946 13.7381L17.2001 19.3125C16.6919 21.6839 13.3081 21.6839 12.7999 19.3125L9.73335 5.00176Z"
          />
</svg>
