<svg width="24" height="24" viewBox="0 0 24 24" xmlns="http://www.w3.org/2000/svg">
<path id="Vector 567 (Stroke)" fill-rule="evenodd" clip-rule="evenodd" d="M8.25 7C8.25 6.58579 8.58579 6.25 9 6.25H21C21.4142 6.25 21.75 6.58579 21.75 7C21.75 7.41421 21.4142 7.75 21 7.75H9C8.58579 7.75 8.25 7.41421 8.25 7Z" />
<path id="Vector 568 (Stroke)" fill-rule="evenodd" clip-rule="evenodd" d="M8.25 12C8.25 11.5858 8.58579 11.25 9 11.25H21C21.4142 11.25 21.75 11.5858 21.75 12C21.75 12.4142 21.4142 12.75 21 12.75H9C8.58579 12.75 8.25 12.4142 8.25 12Z" />
<path id="Vector 569 (Stroke)" fill-rule="evenodd" clip-rule="evenodd" d="M8.25 17C8.25 16.5858 8.58579 16.25 9 16.25H13C13.4142 16.25 13.75 16.5858 13.75 17C13.75 17.4142 13.4142 17.75 13 17.75H9C8.58579 17.75 8.25 17.4142 8.25 17Z" />
<path id="Union" fill-rule="evenodd" clip-rule="evenodd" d="M18.25 21.5C18.25 21.9142 18.5858 22.25 19 22.25C19.4142 22.25 19.75 21.9142 19.75 21.5V19.25H22C22.4142 19.25 22.75 18.9142 22.75 18.5C22.75 18.0858 22.4142 17.75 22 17.75H19.75V15.5C19.75 15.0858 19.4142 14.75 19 14.75C18.5858 14.75 18.25 15.0858 18.25 15.5V17.75H16C15.5858 17.75 15.25 18.0858 15.25 18.5C15.25 18.9142 15.5858 19.25 16 19.25H18.25V21.5Z"/>
<path id="2" d="M2.52033 17.5728L2.52013 17.573L2.52676 17.5792C2.61559 17.6628 2.72777 17.7 2.84956 17.7H5.15456C5.27109 17.7 5.3865 17.6753 5.4739 17.5997C5.56549 17.5206 5.59956 17.4093 5.59956 17.295C5.59956 17.1799 5.56605 17.0677 5.47499 16.9875C5.38754 16.9104 5.27168 16.885 5.15456 16.885H3.95945L4.79154 16.2335C4.79163 16.2334 4.79171 16.2334 4.79179 16.2333C5.05072 16.0323 5.2463 15.8409 5.36898 15.6588C5.49367 15.4736 5.55956 15.2749 5.55956 15.065C5.55956 14.6915 5.42449 14.386 5.14796 14.1676C4.87593 13.9495 4.50848 13.85 4.06456 13.85C3.75091 13.85 3.46395 13.9029 3.20618 14.0118C2.9486 14.1207 2.73338 14.2782 2.56365 14.4848L2.5636 14.4847L2.56087 14.4883C2.49168 14.5778 2.44456 14.6793 2.44456 14.79C2.44456 14.9423 2.51936 15.0641 2.64362 15.148C2.71778 15.2015 2.80268 15.23 2.89456 15.23C3.05025 15.23 3.17359 15.1438 3.265 15.0194C3.34927 14.9072 3.45503 14.8238 3.58437 14.7676L3.58437 14.7676L3.58575 14.767C3.71994 14.707 3.87847 14.675 4.06456 14.675C4.25667 14.675 4.38574 14.7186 4.47046 14.7868L4.47045 14.7868L4.47247 14.7884C4.55127 14.8497 4.59456 14.935 4.59456 15.065C4.59456 15.171 4.57232 15.2459 4.53822 15.2991C4.4996 15.3595 4.40889 15.4514 4.24764 15.5765L4.24764 15.5765L4.24714 15.5769L2.61826 16.851C2.54966 16.9027 2.49428 16.9659 2.45629 17.0411C2.41937 17.111 2.39956 17.1862 2.39956 17.265C2.39956 17.382 2.44001 17.4875 2.52033 17.5728Z"  stroke-width="0.3"/>
<path id="1" d="M4.08757 5.8777L4.08753 5.87758L4.08192 5.87971L3.15816 6.22924C3.07308 6.25981 2.99556 6.30469 2.93861 6.37113C2.87898 6.4407 2.85 6.52461 2.85 6.615C2.85 6.68931 2.86756 6.76052 2.90084 6.82708C2.93663 6.89867 2.98819 6.95934 3.05783 7.00112C3.12709 7.04268 3.20495 7.06 3.285 7.06C3.36251 7.06 3.43915 7.04401 3.51405 7.01492C3.51415 7.01488 3.51426 7.01484 3.51437 7.0148L3.74 6.92822V9.305C3.74 9.4335 3.783 9.55058 3.88035 9.63711C3.97409 9.72044 4.09264 9.755 4.22 9.755C4.34736 9.755 4.46591 9.72044 4.55965 9.63711L4.56002 9.63679C4.65722 9.54982 4.705 9.43483 4.705 9.305V6.31C4.705 6.18471 4.66597 6.06975 4.57767 5.98054C4.49281 5.89131 4.38208 5.85 4.26 5.85C4.201 5.85 4.14328 5.85912 4.08757 5.8777Z" stroke-width="0.3"/>
</svg>
