<svg width="24" height="24" viewBox="0 0 24 24"  xmlns="http://www.w3.org/2000/svg">
    <path fill-rule="evenodd" clip-rule="evenodd"
          d="M13.7545 3.68488L14.9697 2.46964C15.2626 2.17675 15.7375 2.17675 16.0304 2.46964C16.3233 2.76253 16.3233 3.23741 16.0304 3.5303L14.9172 4.64345C15.4381 5.2874 15.75 6.10727 15.75 7V7.55283C16.5154 8.14021 17.1653 8.89863 17.6625 9.77686L18.9697 8.46967C19.2626 8.17678 19.7374 8.17678 20.0303 8.46967C20.3232 8.76256 20.3232 9.23744 20.0303 9.53033L18.5303 11.0303C18.4601 11.1006 18.3794 11.1539 18.2933 11.1905C18.5133 11.841 18.6587 12.5324 18.7188 13.25H21C21.4142 13.25 21.75 13.5858 21.75 14C21.75 14.4142 21.4142 14.75 21 14.75H18.7183C18.6578 15.4649 18.5116 16.1564 18.2905 16.8083C18.3777 16.8449 18.4594 16.8987 18.5303 16.9697L20.0303 18.4697C20.3232 18.7626 20.3232 19.2374 20.0303 19.5303C19.7374 19.8232 19.2626 19.8232 18.9697 19.5303L17.6604 18.2211C16.474 20.3223 14.4192 21.75 12 21.75C9.58078 21.75 7.52598 20.3223 6.33961 18.2211L5.03033 19.5303C4.73744 19.8232 4.26256 19.8232 3.96967 19.5303C3.67678 19.2374 3.67678 18.7626 3.96967 18.4697L5.46967 16.9697C5.54064 16.8987 5.62229 16.8449 5.70945 16.8083C5.48838 16.1564 5.3422 15.4649 5.28165 14.75H3C2.58579 14.75 2.25 14.4142 2.25 14C2.25 13.5858 2.58579 13.25 3 13.25H5.28123C5.34127 12.5324 5.48667 11.841 5.70672 11.1905C5.62058 11.1539 5.5399 11.1006 5.46967 11.0303L3.96967 9.53033C3.67678 9.23744 3.67678 8.76256 3.96967 8.46967C4.26256 8.17678 4.73744 8.17678 5.03033 8.46967L6.33752 9.77686C6.83465 8.89863 7.48455 8.14021 8.25 7.55283V7C8.25 6.10727 8.56195 5.2874 9.08279 4.64345L7.96967 3.53033C7.67678 3.23744 7.67678 2.76256 7.96967 2.46967C8.26256 2.17678 8.73744 2.17678 9.03033 2.46967L10.2455 3.68488C10.769 3.40726 11.3662 3.25 12 3.25C12.6338 3.25 13.231 3.40726 13.7545 3.68488ZM9.75 7.25H14.25V7C14.25 5.75736 13.2426 4.75 12 4.75C10.7574 4.75 9.75 5.75736 9.75 7V7.25ZM9.15392 8.75C7.72857 9.84939 6.75 11.7709 6.75 14C6.75 17.2414 8.78002 19.756 11.25 20.1852V8.75H9.15392ZM12.75 8.75V20.1852C15.22 19.756 17.25 17.2414 17.25 14C17.25 11.7709 16.2714 9.84939 14.8461 8.75H12.75Z"
          />
</svg>
