<svg width="24" height="24" viewBox="0 0 24 24"  xmlns="http://www.w3.org/2000/svg">
    <path d="M13.1947 4.01305C13.4047 4.27506 13.5304 4.60764 13.5304 4.96957C13.5304 5.81481 12.8452 6.5 11.9999 6.5C11.1547 6.5 10.4695 5.81481 10.4695 4.96957C10.4695 4.60764 10.5951 4.27506 10.8052 4.01305L10.8064 4.0115C10.8064 4.0115 11.3376 3.3003 11.7483 2.79741C11.8797 2.63655 12.1202 2.63649 12.2516 2.79728C12.6637 3.30128 13.1947 4.01305 13.1947 4.01305Z"
          />
    <path fill-rule="evenodd" clip-rule="evenodd"
          d="M12.75 8C12.75 7.58579 12.4142 7.25 12 7.25C11.5858 7.25 11.25 7.58579 11.25 8V10H6C3.79086 10 2 11.7909 2 14V20C2 21.1046 2.89543 22 4 22H20C21.1046 22 22 21.1046 22 20V14C22 11.7909 20.2091 10 18 10H12.75V8ZM3.55639 13.4695C3.79966 12.3436 4.80131 11.5 6 11.5H18C19.1987 11.5 20.2003 12.3436 20.4436 13.4695L19.248 14.2665C18.4923 14.7704 17.5077 14.7704 16.7519 14.2665L15.9707 13.7457C15.3829 13.3538 14.6171 13.3538 14.0292 13.7457L13.248 14.2665C12.4923 14.7704 11.5077 14.7704 10.7519 14.2665L9.97068 13.7457C9.38286 13.3538 8.61706 13.3538 8.02923 13.7457L7.24803 14.2665C6.49226 14.7704 5.50766 14.7704 4.75188 14.2665L3.55639 13.4695ZM3.5 15.2347V20C3.5 20.2761 3.72386 20.5 4 20.5H20C20.2761 20.5 20.5 20.2761 20.5 20V15.2347L20.0801 15.5146C18.8205 16.3544 17.1795 16.3544 15.9198 15.5146L15.1386 14.9938C15.0547 14.9378 14.9453 14.9378 14.8613 14.9938L14.0801 15.5146C12.8205 16.3544 11.1795 16.3544 9.91983 15.5146L9.13863 14.9938C9.05466 14.9378 8.94526 14.9378 8.86128 14.9938L8.08008 15.5146C6.82046 16.3544 5.17945 16.3544 3.91983 15.5146L3.5 15.2347Z"
          />
</svg>
