<svg width="24" height="24" viewBox="0 0 24 24"  xmlns="http://www.w3.org/2000/svg">
    <path fill-rule="evenodd" clip-rule="evenodd"
          d="M14.5355 3.8076C15.7071 2.63603 17.6066 2.63603 18.7782 3.8076L20.1924 5.22182C21.364 6.39339 21.364 8.29289 20.1924 9.46446L9.79987 19.857C9.66027 19.9966 9.48247 20.0917 9.28888 20.1304L3.98558 21.1911C3.28586 21.331 2.66894 20.7141 2.80889 20.0144L3.86955 14.7111C3.90826 14.5175 4.00342 14.3397 4.14302 14.2001L14.5355 3.8076ZM17.7175 4.86826L19.1317 6.28248C19.7175 6.86826 19.7175 7.81801 19.1317 8.4038L17.5407 9.99482L14.0052 6.45929L15.5962 4.86826C16.182 4.28248 17.1317 4.28248 17.7175 4.86826ZM12.9445 7.51995L5.31073 15.1537L4.42684 19.5731L8.84626 18.6893L16.48 11.0555L12.9445 7.51995Z"
          />
</svg>
