<svg width="24" height="24" viewBox="0 0 24 24" fill="none" xmlns="http://www.w3.org/2000/svg">
<g id="element_list-24px">
<g id="Union">
<path fill-rule="evenodd" clip-rule="evenodd" d="M10 7C10 9.20914 8.20914 11 6 11C3.79086 11 2 9.20914 2 7C2 4.79086 3.79086 3 6 3C8.20914 3 10 4.79086 10 7ZM8.5 7C8.5 8.38071 7.38071 9.5 6 9.5C4.61929 9.5 3.5 8.38071 3.5 7C3.5 5.61929 4.61929 4.5 6 4.5C7.38071 4.5 8.5 5.61929 8.5 7Z" fill="#212C3A"/>
<path d="M21.9959 5.5C21.9959 5.91421 21.6601 6.25 21.2459 6.25H12.7694C12.3552 6.25 12.0194 5.91421 12.0194 5.5C12.0194 5.08579 12.3552 4.75 12.7694 4.75H21.2459C21.6601 4.75 21.9959 5.08579 21.9959 5.5Z" fill="#212C3A"/>
<path d="M16.25 9.25C16.6642 9.25 17 8.91421 17 8.5C17 8.08579 16.6642 7.75 16.25 7.75L12.75 7.75C12.3358 7.75 12 8.08579 12 8.5C12 8.91421 12.3358 9.25 12.75 9.25L16.25 9.25Z" fill="#212C3A"/>
<path fill-rule="evenodd" clip-rule="evenodd" d="M6 21C8.20914 21 10 19.2091 10 17C10 14.7909 8.20914 13 6 13C3.79086 13 2 14.7909 2 17C2 19.2091 3.79086 21 6 21ZM6 19.5C7.38071 19.5 8.5 18.3807 8.5 17C8.5 15.6193 7.38071 14.5 6 14.5C4.61929 14.5 3.5 15.6193 3.5 17C3.5 18.3807 4.61929 19.5 6 19.5Z" fill="#212C3A"/>
<path d="M21.2459 16.25C21.6601 16.25 21.9959 15.9142 21.9959 15.5C21.9959 15.0858 21.6601 14.75 21.2459 14.75H12.7694C12.3552 14.75 12.0194 15.0858 12.0194 15.5C12.0194 15.9142 12.3552 16.25 12.7694 16.25H21.2459Z" fill="#212C3A"/>
<path d="M16.25 19.25C16.6642 19.25 17 18.9142 17 18.5C17 18.0858 16.6642 17.75 16.25 17.75H12.75C12.3358 17.75 12 18.0858 12 18.5C12 18.9142 12.3358 19.25 12.75 19.25H16.25Z" fill="#212C3A"/>
</g>
</g>
</svg>
