<svg width="24" height="24" viewBox="0 0 24 24" fill="none" xmlns="http://www.w3.org/2000/svg">
<g id="files_dock-24px">
<g id="Union">
<path d="M9.75 8.50013L6.75002 8.50012C6.3358 8.50012 6 8.83591 6 9.25012L6.00001 15.3041C6.00001 15.7183 6.33579 16.0541 6.75001 16.0541C7.16422 16.0541 7.50001 15.7183 7.50001 15.3041L7.5 13.0001H8.5C8.91421 13.0001 9.25 12.6643 9.25 12.2501C9.25 11.8359 8.91421 11.5001 8.5 11.5001H7.5L7.5 10.0001L9.75 10.0001C10.1642 10.0001 10.5 9.66434 10.5 9.25013C10.5 8.83592 10.1642 8.50013 9.75 8.50013Z" fill="#212C3A"/>
<path d="M17.5 10.7501C17.9142 10.7501 18.25 11.0859 18.25 11.5001V13.6518L18.3713 13.5305C18.6642 13.2376 19.1391 13.2376 19.432 13.5305C19.7249 13.8234 19.7249 14.2982 19.432 14.5911L18.0178 16.0053C17.8696 16.1535 17.6748 16.2268 17.4805 16.225C17.2867 16.2264 17.0924 16.1532 16.9445 16.0053L15.5303 14.5911C15.2374 14.2982 15.2374 13.8233 15.5303 13.5305C15.8232 13.2376 16.2981 13.2376 16.591 13.5305L16.75 13.6895V11.5001C16.75 11.0859 17.0858 10.7501 17.5 10.7501Z" fill="#212C3A"/>
<path d="M16.5 8.00012C16.0858 8.00012 15.75 8.33591 15.75 8.75012C15.75 9.16434 16.0858 9.50012 16.5 9.50012H18.5C18.9142 9.50012 19.25 9.16434 19.25 8.75012C19.25 8.33591 18.9142 8.00012 18.5 8.00012H16.5Z" fill="#212C3A"/>
<path fill-rule="evenodd" clip-rule="evenodd" d="M11.9072 2.05384C12.0407 2.0272 12.1735 2.0169 12.3037 2.02161C13.215 2.05456 14 2.81713 14 3.76966V4.00013H19.75C21.2599 4.00013 22.5 5.24024 22.5 6.75013V17.7501C22.5 19.26 21.2599 20.5001 19.75 20.5001H13.9375C13.7783 21.4456 12.8794 22.1407 11.9072 21.9464L4.30859 20.4269C3.26151 20.2175 2.5 19.2883 2.5 18.2208V5.77942C2.5 4.71163 3.26142 3.7831 4.30859 3.57337L11.9072 2.05384ZM12.5 3.76966C12.5 3.59626 12.3708 3.49067 12.2012 3.52454L4.60352 5.04407C4.24769 5.11534 4 5.41722 4 5.77942V18.2208C4 18.583 4.24807 18.8843 4.60352 18.9552L12.2012 20.4757C12.3706 20.5097 12.5 20.404 12.5 20.2306V3.76966ZM19.75 5.50013H14V19.0001H19.75C20.4491 19.0001 21 18.4492 21 17.7501V6.75013C21 6.05101 20.4491 5.50013 19.75 5.50013Z" fill="#212C3A"/>
</g>
</g>
</svg>
