<svg width="24" height="24" viewBox="0 0 24 24" fill="none" xmlns="http://www.w3.org/2000/svg">
<g id="form-24px">
<g id="form">
<path fill-rule="evenodd" clip-rule="evenodd" d="M4 2C2.89543 2 2 2.89543 2 4V9C2 10.1046 2.89543 11 4 11H9C10.1046 11 11 10.1046 11 9V4C11 2.89543 10.1046 2 9 2H4ZM9 3.5H4C3.72386 3.5 3.5 3.72386 3.5 4V9C3.5 9.27614 3.72386 9.5 4 9.5H9C9.27614 9.5 9.5 9.27614 9.5 9V4C9.5 3.72386 9.27614 3.5 9 3.5Z" fill="#212C3A"/>
<path d="M10.9944 13.75C10.9944 14.1642 10.6586 14.5 10.2444 14.5L2.75 14.5C2.33579 14.5 2 14.1642 2 13.75C2 13.3358 2.33579 13 2.75 13L10.2444 13C10.6586 13 10.9944 13.3358 10.9944 13.75Z" fill="#212C3A"/>
<path d="M10.2444 18C10.6586 18 10.9944 17.6642 10.9944 17.25C10.9944 16.8358 10.6586 16.5 10.2444 16.5L2.75 16.5C2.33579 16.5 2 16.8358 2 17.25C2 17.6642 2.33579 18 2.75 18L10.2444 18Z" fill="#212C3A"/>
<path d="M10.9944 21.25C10.9944 21.6642 10.6586 22 10.2444 22L2.75 22C2.33579 22 2 21.6642 2 21.25C2 20.8358 2.33579 20.5 2.75 20.5L10.2444 20.5C10.6586 20.5 10.9944 20.8358 10.9944 21.25Z" fill="#212C3A"/>
<path fill-rule="evenodd" clip-rule="evenodd" d="M13 4C13 2.89543 13.8954 2 15 2H20C21.1046 2 22 2.89543 22 4V20C22 21.1046 21.1046 22 20 22H15C13.8954 22 13 21.1046 13 20V4ZM15 3.5H20C20.2761 3.5 20.5 3.72386 20.5 4V20C20.5 20.2761 20.2761 20.5 20 20.5H15C14.7239 20.5 14.5 20.2761 14.5 20V4C14.5 3.72386 14.7239 3.5 15 3.5Z" fill="#212C3A"/>
</g>
</g>
</svg>
