<svg width="24" height="24" viewBox="0 0 24 24"  xmlns="http://www.w3.org/2000/svg">
    <path fill-rule="evenodd" clip-rule="evenodd"
          d="M12 11.5C12.8284 11.5 13.5 10.8284 13.5 10C13.5 9.17157 12.8284 8.5 12 8.5C11.1716 8.5 10.5 9.17157 10.5 10C10.5 10.8284 11.1716 11.5 12 11.5ZM15 10C15 11.6569 13.6569 13 12 13C10.3431 13 9 11.6569 9 10C9 8.34315 10.3431 7 12 7C13.6569 7 15 8.34315 15 10Z"
          />
    <path fill-rule="evenodd" clip-rule="evenodd"
          d="M17.0114 14.2442C17.0393 14.201 17.0695 14.159 17.1021 14.1183C17.9992 12.9993 18.5347 11.5816 18.5347 10.0348C18.5347 6.42572 15.609 3.5 12 3.5C8.3909 3.5 5.46518 6.42572 5.46518 10.0348C5.46518 11.5815 6.00067 12.9991 6.89759 14.118C6.91054 14.1342 6.92334 14.1504 6.93572 14.167L5.73394 15.0646L5.72744 15.0565C4.62475 13.681 3.96518 11.9349 3.96518 10.0348C3.96518 5.5973 7.56247 2 12 2C16.4374 2 20.0347 5.5973 20.0347 10.0348C20.0347 11.396 19.6963 12.6781 19.0989 13.8016C18.8635 14.2442 18.588 14.6622 18.2771 15.0507L18.2742 15.0543L18.2725 15.0565H18.2771L18.2754 15.0589C18.2754 15.0589 18.2737 15.0611 18.2725 15.0627C18.2293 15.1205 17.8875 15.5772 17.3722 16.2563C16.3713 17.5754 14.7157 19.7339 13.3214 21.4393C12.6313 22.2834 11.3689 22.2831 10.6791 21.4386C8.52279 18.7985 5.73394 15.0646 5.73394 15.0646L6.93572 14.167L7.05783 14.33C7.1376 14.4363 7.25419 14.5915 7.40093 14.786C7.69446 15.1752 8.10832 15.7216 8.58919 16.3501C9.55302 17.6097 10.7779 19.1883 11.8409 20.4898C11.8923 20.5528 11.9488 20.5722 12.0005 20.5722C12.0522 20.5722 12.1087 20.5528 12.1602 20.4899C13.2265 19.1856 14.454 17.6049 15.4195 16.3438C15.9012 15.7146 16.3158 15.1676 16.6097 14.7781C16.7567 14.5834 16.8734 14.4282 16.9533 14.3217L17.0114 14.2442Z"
          />
</svg>
