<svg width="24" height="24" viewBox="0 0 24 24"  xmlns="http://www.w3.org/2000/svg">
    <path d="M22 8.13366C21.9 7.73762 21.7 7.34158 21.3 7.04455L13.6 1.99505C13.1 1.69802 12.5 1.5 12 1.5C11.5 1.5 10.9 1.69802 10.5 1.99505L2.8 7.04455C2.4 7.34158 2.1 7.73762 2.1 8.13366C2 8.33168 2 8.43069 2 8.62871V18.5297C2 20.2129 3.3 21.5 5 21.5H19C20.7 21.5 22 20.2129 22 18.5297V8.62871C22 8.43069 22 8.33168 22 8.13366C22 8.13366 21.9 8.03465 22 8.13366ZM11.3 3.18317C11.7 2.88614 12.3 2.88614 12.7 3.18317L20.3 8.23267L12.7 13.2822C12.3 13.5792 11.7 13.5792 11.3 13.2822L3.7 8.23267L11.3 3.18317ZM20.5 18.5297C20.5 19.3218 19.8 20.0149 19 20.0149H5C4.2 20.0149 3.5 19.3218 3.5 18.5297V9.81683L10.5 14.3713C11.4 14.9653 12.6 14.9653 13.6 14.3713L20.6 9.81683V18.5297H20.5Z"
          />
</svg>
