<svg width="24" height="24" viewBox="0 0 24 24" fill="none" xmlns="http://www.w3.org/2000/svg">
<path fill-rule="evenodd" clip-rule="evenodd" d="M4 5.75C4 5.33579 4.33579 5 4.75 5H18.75C19.1642 5 19.5 5.33579 19.5 5.75C19.5 6.16421 19.1642 6.5 18.75 6.5H4.75C4.33579 6.5 4 6.16421 4 5.75Z" fill="#212C3A"/>
<path fill-rule="evenodd" clip-rule="evenodd" d="M4 12.25C4 11.8358 4.33579 11.5 4.75 11.5H18.75C19.1642 11.5 19.5 11.8358 19.5 12.25C19.5 12.6642 19.1642 13 18.75 13H4.75C4.33579 13 4 12.6642 4 12.25Z" fill="#212C3A"/>
<path fill-rule="evenodd" clip-rule="evenodd" d="M4 18.75C4 18.3358 4.33579 18 4.75 18H18.75C19.1642 18 19.5 18.3358 19.5 18.75C19.5 19.1642 19.1642 19.5 18.75 19.5H4.75C4.33579 19.5 4 19.1642 4 18.75Z" fill="#212C3A"/>
</svg>
