<svg width="24" height="24" viewBox="0 0 24 24"  xmlns="http://www.w3.org/2000/svg">
    <path fill-rule="evenodd" clip-rule="evenodd"
          d="M8.7279 6.7027L7.22026 4.64683C6.96115 4.29349 6.47148 4.20344 6.10361 4.44148C3.98916 5.80965 3.25558 8.02491 4.21395 9.7655C5.10115 11.3768 6.46393 13.3426 8.54594 15.4246C10.628 17.5066 12.5937 18.8694 14.2051 19.7566C15.9456 20.715 18.1609 19.9814 19.5291 17.867C19.7671 17.4991 19.6771 17.0094 19.3237 16.7503L17.2679 15.2427C16.8144 14.9101 16.213 14.8591 15.71 15.1106L14.8905 15.5204C14.3085 15.8114 13.5233 15.9079 12.7861 15.5286C12.2251 15.24 11.3358 14.679 10.3137 13.6569C9.2916 12.6347 8.73055 11.7454 8.44197 11.1845C8.06267 10.4472 8.15919 9.66205 8.4502 9.08002L8.85993 8.26056C9.11142 7.75758 9.06045 7.15618 8.7279 6.7027ZM5.28873 3.18212C2.74822 4.82598 1.44046 7.83826 2.89996 10.489C3.85249 12.219 5.29932 14.2993 7.48528 16.4853C9.67124 18.6712 11.7516 20.1181 13.4816 21.0706C16.1323 22.5301 19.1446 21.2223 20.7884 18.6818C21.458 17.647 21.2047 16.2696 20.2108 15.5407L18.1549 14.0331C17.2479 13.3679 16.0451 13.266 15.0392 13.769L14.2197 14.1787C13.9825 14.2973 13.7081 14.3161 13.4723 14.1948C13.0426 13.9737 12.2812 13.503 11.3744 12.5962C10.4676 11.6894 9.99686 10.928 9.77581 10.4983C9.65448 10.2625 9.67324 9.98805 9.79184 9.75084L10.2016 8.93138C10.7046 7.92542 10.6026 6.72262 9.93751 5.81565L8.42987 3.75979C7.70098 2.76584 6.32356 2.51253 5.28873 3.18212Z"
          />
    <path d="M20.0303 5.03033C20.3232 4.73744 20.3232 4.26256 20.0303 3.96967C19.7374 3.67678 19.2626 3.67678 18.9697 3.96967L15.75 7.18934V6C15.75 5.58579 15.4142 5.25 15 5.25C14.5858 5.25 14.25 5.58579 14.25 6V8.5C14.25 9.19036 14.8096 9.75 15.5 9.75H18C18.4142 9.75 18.75 9.41421 18.75 9C18.75 8.58579 18.4142 8.25 18 8.25H16.8107L20.0303 5.03033Z"
          />
</svg>
