<svg width="24" height="25" viewBox="0 0 24 25" fill="none" xmlns="http://www.w3.org/2000/svg">
<g id="push_alert">
<path id="Polygon 1 (Stroke)" fill-rule="evenodd" clip-rule="evenodd" d="M20.1083 18.1558L13.3033 6.21483C12.7278 5.20508 11.2723 5.20509 10.6968 6.21483L3.89186 18.1558C3.32199 19.1558 4.04414 20.3985 5.1951 20.3985H18.8051C19.956 20.3985 20.6782 19.1558 20.1083 18.1558ZM14.6065 5.47213C13.4556 3.45265 10.5445 3.45265 9.3936 5.47214L2.58863 17.4131C1.44889 19.4131 2.89318 21.8985 5.1951 21.8985H18.8051C21.107 21.8985 22.5513 19.413 21.4115 17.4131L14.6065 5.47213Z" fill="#212C3A"/>
<g id="Union">
<path d="M11.9999 17.9785C11.5857 17.9785 11.2499 17.6427 11.2499 17.2285L11.2499 14.2285C11.2499 13.8143 11.5857 13.4785 11.9999 13.4785C12.4141 13.4785 12.7499 13.8143 12.7499 14.2285L12.7499 17.2285C12.7499 17.6427 12.4141 17.9785 11.9999 17.9785Z" fill="#212C3A"/>
<path d="M9.32538 13.9693C9.03249 13.6764 9.03249 13.2015 9.32538 12.9086L11.4467 10.7873C11.6259 10.6081 11.8732 10.5386 12.1053 10.5786C12.2538 10.6014 12.3969 10.669 12.513 10.7816L14.6663 12.8704C14.9637 13.1588 14.9709 13.6336 14.6825 13.9309C14.3941 14.2282 13.9193 14.2354 13.6219 13.947L11.9907 12.3647L10.386 13.9693C10.0931 14.2622 9.61828 14.2622 9.32538 13.9693Z" fill="#212C3A"/>
</g>
</g>
</svg>
