<svg width="24" height="24" viewBox="0 0 24 24"  xmlns="http://www.w3.org/2000/svg">
    <path fill-rule="evenodd" clip-rule="evenodd"
          d="M12 16.5C14.4853 16.5 16.5 14.4853 16.5 12C16.5 9.51472 14.4853 7.5 12 7.5C9.51472 7.5 7.5 9.51472 7.5 12C7.5 14.4853 9.51472 16.5 12 16.5ZM18 12C18 15.3137 15.3137 18 12 18C8.68629 18 6 15.3137 6 12C6 8.68629 8.68629 6 12 6C15.3137 6 18 8.68629 18 12Z"
          />
    <path fill-rule="evenodd" clip-rule="evenodd"
          d="M11.9952 2.25C12.4094 2.25 12.7452 2.58579 12.7452 3V4C12.7452 4.41421 12.4094 4.75 11.9952 4.75C11.581 4.75 11.2452 4.41421 11.2452 4V3C11.2452 2.58579 11.581 2.25 11.9952 2.25Z"
          />
    <path fill-rule="evenodd" clip-rule="evenodd"
          d="M11.9952 19.2496C12.4094 19.2496 12.7452 19.5854 12.7452 19.9996V20.9964C12.7452 21.4106 12.4094 21.7464 11.9952 21.7464C11.581 21.7464 11.2452 21.4106 11.2452 20.9964V19.9996C11.2452 19.5854 11.581 19.2496 11.9952 19.2496Z"
          />
    <path fill-rule="evenodd" clip-rule="evenodd"
          d="M5.10215 5.1052C5.39505 4.81231 5.86992 4.81231 6.16281 5.1052L7.02728 5.96967C7.32018 6.26256 7.32018 6.73744 7.02728 7.03033C6.73439 7.32322 6.25952 7.32322 5.96662 7.03033L5.10215 6.16586C4.80926 5.87297 4.80926 5.39809 5.10215 5.1052Z"
          />
    <path fill-rule="evenodd" clip-rule="evenodd"
          d="M16.9697 16.9728C17.2626 16.6799 17.7375 16.6799 18.0304 16.9728L18.8882 17.8306C19.1811 18.1235 19.1811 18.5984 18.8882 18.8913C18.5953 19.1842 18.1204 19.1842 17.8275 18.8913L16.9697 18.0334C16.6768 17.7405 16.6768 17.2656 16.9697 16.9728Z"
          />
    <path fill-rule="evenodd" clip-rule="evenodd"
          d="M2.24695 11.9982C2.24695 11.584 2.58273 11.2482 2.99695 11.2482H3.99695C4.41116 11.2482 4.74695 11.584 4.74695 11.9982C4.74695 12.4124 4.41116 12.7482 3.99695 12.7482H2.99695C2.58273 12.7482 2.24695 12.4124 2.24695 11.9982Z"
          />
    <path fill-rule="evenodd" clip-rule="evenodd"
          d="M19.2466 11.9982C19.2466 11.584 19.5824 11.2482 19.9966 11.2482H20.9934C21.4076 11.2482 21.7434 11.584 21.7434 11.9982C21.7434 12.4124 21.4076 12.7482 20.9934 12.7482H19.9966C19.5824 12.7482 19.2466 12.4124 19.2466 11.9982Z"
          />
    <path fill-rule="evenodd" clip-rule="evenodd"
          d="M5.10214 18.8913C4.80925 18.5984 4.80925 18.1235 5.10214 17.8306L5.96307 16.9697C6.25596 16.6768 6.73084 16.6768 7.02373 16.9697C7.31662 17.2626 7.31662 17.7374 7.02373 18.0303L6.1628 18.8913C5.86991 19.1841 5.39503 19.1841 5.10214 18.8913Z"
          />
    <path fill-rule="evenodd" clip-rule="evenodd"
          d="M16.963 7.03033C16.6701 6.73743 16.6701 6.26256 16.963 5.96967L17.8276 5.10517C18.1205 4.81229 18.5953 4.81229 18.8882 5.10519C19.1811 5.39809 19.1811 5.87297 18.8882 6.16585L18.0237 7.03035C17.7308 7.32324 17.2559 7.32323 16.963 7.03033Z"
          />
</svg>
