<svg width="24" height="24" viewBox="0 0 24 24"  xmlns="http://www.w3.org/2000/svg">
    <path d="M9 20.8C6.6 20.8 4.2 20.2001 2.2 19.2C1.9 19.1 1.7 18.7 1.8 18.4C1.9 18.1 2.1 17.8 2.4 17.8C4.3 17.6 5.7 17.2 7 16.5C4.1 14.3 2.6 10.3 2.8 5.00005C2.8 4.70005 3 4.40005 3.3 4.30005C3.6 4.20005 3.9 4.30005 4.1 4.50005C6.2 6.60005 8.8 8.80005 11.2 8.50005C11.1 7.60005 11.2 5.90005 12.2 4.70005C13 3.80005 14.1 3.30005 15.6 3.30005C17.3 3.30005 18.4 4.40005 18.9 5.20005L21.3 4.40005C21.6 4.30005 21.9 4.40005 22.1 4.70005C22.3 5.00005 22.3 5.30005 22.1 5.60005L20.3 8.30005C20.5 9.40005 20.8 13 18.1 16.6C15.8 19.6 12.4 20.8 9 20.8ZM5.2 18.8C9.3 20 14 19.5 16.9 15.6C19.6 12 18.8 8.40005 18.8 8.20005C18.8 8.00005 18.8 7.80005 18.9 7.60005L19.7 6.40005L18.8 6.70005C18.4 6.80005 18.1 6.70005 17.9 6.30005C17.9 6.30005 17.1 4.70005 15.6 4.70005C14.6 4.70005 13.9 5.00005 13.4 5.50005C12.4 6.70005 12.8 8.70005 12.8 8.80005C12.9 9.20005 12.7 9.50005 12.3 9.70005C9.5 10.6 6.7 8.80005 4.3 6.70005C4.5 10.1 5.5 14 8.9 15.8C9.1 15.9 9.3 16.2 9.3 16.4C9.3 16.7 9.2 16.9 8.9 17.1C7.7 17.9 6.5 18.4 5.2 18.8Z"
          />
</svg>
