<svg width="24" height="24" viewBox="0 0 24 24" fill="none" xmlns="http://www.w3.org/2000/svg">
<g id="View_list-24px">
<path id="lists" fill-rule="evenodd" clip-rule="evenodd" d="M2 5V18.9951C2 20.652 3.34315 21.9951 5 21.9951H19C20.6569 21.9951 22 20.652 22 18.9951V5C22 3.34315 20.6569 2 19 2H5C3.34315 2 2 3.34315 2 5ZM9.5 3.5H19C19.8284 3.5 20.5 4.17157 20.5 5V8H9.5V3.5ZM8 8V3.5H5C4.17157 3.5 3.5 4.17157 3.5 5V8H8ZM3.5 9.5H8V14.5H3.5V9.5ZM9.5 9.5H20.5V14.5H9.5V9.5ZM9.5 16H20.5V18.9951C20.5 19.8236 19.8284 20.4951 19 20.4951H9.5L9.5 16ZM8 16H3.5V18.9951C3.5 19.8236 4.17157 20.4951 5 20.4951H8L8 16Z" fill="#212C3A"/>
</g>
</svg>
