<svg width="24" height="24" viewBox="0 0 24 24"  xmlns="http://www.w3.org/2000/svg">
    <path fill-rule="evenodd" clip-rule="evenodd"
          d="M18.3553 6.55003C19.0631 6.9858 19.6834 7.55788 20.1777 8.23818C20.9721 9.3316 21.4 10.6485 21.4 12C21.4 13.3515 20.9721 14.6684 20.1777 15.7618C19.6834 16.4421 19.0631 17.0142 18.3553 17.45C18.1509 17.5758 17.9392 17.6903 17.7212 17.7927C17.6721 17.8158 17.6255 17.8427 17.5818 17.8731C17.2696 18.0899 17.1052 18.479 17.2249 18.8476C17.3615 19.2678 17.8149 19.5014 18.2194 19.3236C18.2805 19.2968 18.3412 19.2692 18.4015 19.2409C18.6648 19.1172 18.9207 18.9794 19.1682 18.8283C20.0637 18.2817 20.8483 17.5609 21.4721 16.7023C22.4652 15.3355 23 13.6894 23 12C23 10.3106 22.4652 8.6645 21.4721 7.29772C20.8483 6.43906 20.0637 5.71832 19.1682 5.17166C18.9207 5.0206 18.6648 4.88284 18.4015 4.75913C18.3412 4.7308 18.2805 4.70321 18.2194 4.67636C17.8149 4.49856 17.3615 4.73219 17.2249 5.15239C17.1052 5.52099 17.2696 5.91009 17.5818 6.1269C17.6255 6.15725 17.6721 6.18423 17.7212 6.20731C17.9392 6.30973 18.1509 6.4242 18.3553 6.55003Z"
          />
    <path fill-rule="evenodd" clip-rule="evenodd"
          d="M16.8406 14.977C17.2253 14.7391 17.5626 14.4275 17.8316 14.0572C18.266 13.4593 18.5 12.7391 18.5 12C18.5 11.2609 18.266 10.5407 17.8316 9.94275C17.545 9.54839 17.181 9.22051 16.7647 8.97743C16.7309 8.9577 16.6983 8.93612 16.6671 8.91288C16.6372 8.89055 16.6085 8.86669 16.5813 8.84148C16.3369 8.61504 16.209 8.27899 16.3133 7.95801C16.4413 7.56407 16.868 7.34358 17.2384 7.52901C17.3343 7.57703 17.4285 7.62808 17.521 7.68205C18.1157 8.02928 18.6358 8.49767 19.0451 9.06107C19.6657 9.91531 20 10.9441 20 12C20 13.0559 19.6657 14.0847 19.0451 14.9389C18.6358 15.5023 18.1157 15.9707 17.521 16.3179C17.4285 16.3719 17.3343 16.423 17.2384 16.471C16.868 16.6564 16.4413 16.4359 16.3133 16.042C16.209 15.721 16.3369 15.385 16.5813 15.1585C16.6085 15.1333 16.6372 15.1094 16.6671 15.0871C16.6983 15.0639 16.7309 15.0423 16.7647 15.0226C16.7902 15.0077 16.8155 14.9925 16.8406 14.977Z"
          />
    <path fill-rule="evenodd" clip-rule="evenodd"
          d="M7 15.5C7.36333 15.5 7.71432 15.6319 7.98776 15.8711L12.6707 19.9688C12.994 20.2516 13.5 20.022 13.5 19.5925V4.40754C13.5 3.97795 12.994 3.74837 12.6707 4.03125L7.98776 8.12887C7.71432 8.36812 7.36333 8.5 7 8.5H5C4.17157 8.5 3.5 9.17157 3.5 10V14C3.5 14.8284 4.17157 15.5 5 15.5H7ZM7 17L11.683 21.0976C12.9762 22.2291 15 21.3108 15 19.5925V4.40754C15 2.68922 12.9762 1.77086 11.683 2.90238L7 7H5C3.34315 7 2 8.34315 2 10V14C2 15.6569 3.34315 17 5 17H7Z"
          />
</svg>
