<svg width="24" height="24" viewBox="0 0 24 24"  xmlns="http://www.w3.org/2000/svg">
    <path fill-rule="evenodd" clip-rule="evenodd"
          d="M20.1082 17.2573L13.3032 5.31634C12.7278 4.3066 11.2722 4.3066 10.6968 5.31634L3.8918 17.2573C3.32193 18.2573 4.04408 19.5 5.19503 19.5H18.805C19.9559 19.5 20.6781 18.2573 20.1082 17.2573ZM14.6065 4.57365C13.4556 2.55416 10.5444 2.55416 9.39353 4.57365L2.58857 16.5146C1.44883 18.5146 2.89312 21 5.19503 21H18.805C21.1069 21 22.5512 18.5146 21.4114 16.5146L14.6065 4.57365Z"
          />
    <path d="M13 17C13 17.5523 12.5523 18 12 18C11.4477 18 11 17.5523 11 17C11 16.4477 11.4477 16 12 16C12.5523 16 13 16.4477 13 17Z"
          />
    <path fill-rule="evenodd" clip-rule="evenodd"
          d="M12 14.75C12.4142 14.75 12.75 14.4142 12.75 14V9C12.75 8.58579 12.4142 8.25 12 8.25C11.5858 8.25 11.25 8.58579 11.25 9V14C11.25 14.4142 11.5858 14.75 12 14.75Z"
          />
</svg>
