<svg width="24" height="24" viewBox="0 0 24 24"  xmlns="http://www.w3.org/2000/svg">
    <path fill-rule="evenodd" clip-rule="evenodd"
          d="M5.97479 7.17869L5.44452 7.23761C4.76334 7.3133 4.21532 7.83224 4.10264 8.50829C3.71733 10.8201 3.71733 13.1798 4.10264 15.4917C4.21532 16.1677 4.76334 16.6867 5.44452 16.7624L5.97479 16.8213C9.97927 17.2662 14.0207 17.2662 18.0252 16.8213L18.5555 16.7624C19.2367 16.6867 19.7847 16.1677 19.8974 15.4917C20.2827 13.1798 20.2827 10.8201 19.8974 8.50829C19.7847 7.83224 19.2367 7.3133 18.5555 7.23761L18.0252 7.17869C14.0207 6.73375 9.97927 6.73375 5.97479 7.17869ZM5.27887 5.74679C3.93069 5.89658 2.84606 6.92367 2.62305 8.26169C2.21053 10.7368 2.21053 13.2632 2.62305 15.7383C2.84606 17.0763 3.93069 18.1034 5.27887 18.2532L5.80914 18.3121C9.92372 18.7693 14.0763 18.7693 18.1909 18.3121L18.7211 18.2532C20.0693 18.1034 21.1539 17.0763 21.3769 15.7383C21.7895 13.2632 21.7895 10.7368 21.3769 8.26169C21.1539 6.92367 20.0693 5.89658 18.7211 5.74679L18.1909 5.68787C14.0763 5.23069 9.92372 5.23069 5.80914 5.68787L5.27887 5.74679Z"
          />
    <path fill-rule="evenodd" clip-rule="evenodd"
          d="M13.2958 12L11.5 10.8028V13.1972L13.2958 12ZM14.7519 12.8321C15.3457 12.4362 15.3457 11.5638 14.7519 11.168L11.5547 9.03647C10.8901 8.59343 10 9.06982 10 9.86852V14.1315C10 14.9302 10.8901 15.4066 11.5547 14.9635L14.7519 12.8321Z"
          />
</svg>
